<svg width="100" height="100" viewBox="0 0 100 100" fill="none" xmlns="http://www.w3.org/2000/svg">
<path d="M82 42H80.0156C80.0078 41.7734 80 41.5469 80 41.3281C80 30.7109 72.5781 20 56 20C45.375 20 41.1016 25.5547 40.6484 26.1875L40.4844 26.4609C39.6719 28.1016 39.8828 29.7812 41.0625 30.9609C42.3672 32.2734 44.4766 32.3516 46.0859 31.1406C46.6953 30.6875 49.2969 30 54 30C66.1562 30 68.0312 42.3906 68.0469 49.875C67.7812 52.1328 68.7344 54.8281 70.8281 55.6328C72.6719 56.4844 74.3359 55.6484 74.8125 55.4062C76.9141 54.4766 78.6641 54 80 54C83.2656 54 88 56.3359 88 60C88 64.8047 86.6406 68 80 68H78C74.9375 68 71.6484 64.75 69.0156 62.1406C68.4375 61.5703 67.8906 61.0313 67.3672 60.5391C66.0937 59.3438 63.875 56.6719 61.5234 53.8438C58.1484 49.7969 54.3359 45.2031 51.3359 42.5078C42.6953 34.75 35.5391 32 24 32C13.625 32 4.63281 38.5781 1.07813 48.7656L0.890626 49.375C0.492188 50.6875 0 52.3203 0 56C0 64.2969 5.01563 80 24 80C41.4531 80 49.2969 70.1562 49.375 70.0547L49.5078 69.8594C51.1016 67.2187 49.6797 65.4844 49.2109 65.0156C48.5156 64.3125 47.5312 63.9453 46.5547 64.0078C45.6172 64.0625 44.7109 64.4922 43.9844 65.2188C43.6094 65.5859 43.3203 65.875 42.7734 66.25C39.8906 68.4922 33.1484 70 26 70C16.2266 70 12 60.7266 12 56C12 51.5391 14.5312 44 24 44C36.2734 44 42.4687 51.0156 44.5156 53.3438C45.9062 54.8828 47.2969 56.3437 48.6719 57.7969C51.0937 60.3437 53.375 62.7422 55.6406 65.5156C59.1719 69.6719 62.7422 73.6328 67.5547 76.3516C71.7109 78.7734 75.8984 80 80 80C92.8984 80 100 72.9688 100 60.1953C100 51.0156 91.0859 42 82 42Z" fill="black"/>
</svg>
