<svg width="39" height="41" viewBox="0 0 39 41" fill="none" xmlns="http://www.w3.org/2000/svg">
<path d="M31.0318 5.97916H35.75L25.935 16.2121C24.2198 17.9879 21.9082 18.9839 19.5 18.9839C17.0918 18.9839 14.781 17.9879 13.065 16.2121L3.25 5.97916H7.96819L15.4261 13.7384C16.5133 14.8651 17.9774 15.4972 19.5041 15.4972C21.0307 15.4972 22.4949 14.8651 23.582 13.7384L31.0318 5.97916Z" fill="black"/>
<path d="M23.582 27.2616C22.4949 26.1349 21.0307 25.5029 19.5041 25.5029C17.9774 25.5029 16.5133 26.1349 15.4261 27.2616L7.96819 35.0208H3.25L13.065 24.7879C14.7802 23.0121 17.0918 22.0161 19.5 22.0161C21.9082 22.0161 24.219 23.0121 25.935 24.7879L35.75 35.0208H31.0318L23.582 27.2616Z" fill="#5046E2"/>
</svg>
