<svg width="744" height="634" viewBox="0 0 744 634" fill="none" xmlns="http://www.w3.org/2000/svg">
<path d="M549.079 23.8339C599.525 30.9611 672.878 -21.2811 698.39 36.4029C724.795 96.106 629.647 155.346 637.451 223.649C646.485 302.712 761.569 339.884 741.699 415.443C723.214 485.73 624.745 411.771 577.325 452.282C530.902 491.941 541.837 614.569 488.107 632.084C438.319 648.313 405.891 557.102 361.845 522.523C321.963 491.212 248.031 498.363 240.892 437.998C232.122 363.844 331.351 324.974 329.61 249.963C327.969 179.251 210.948 149.526 232.693 84.8207C253.917 21.6683 336.854 96.5814 387.408 77.9815C416.895 67.1327 427.318 12.2357 456.991 2.2977C487.728 -7.9969 517.542 19.3784 549.079 23.8339Z" fill="#8481B7"/>
<g clip-path="url(#clip0_2:77)">
<path d="M500.902 273.014H495.819V479.965H500.902V273.014Z" fill="#3F3D56"/>
<path d="M547.811 299.388C548.134 371.754 498.742 430.653 498.742 430.653C498.742 430.653 448.824 372.225 448.501 299.86C448.177 227.494 497.57 168.594 497.57 168.594C497.57 168.594 547.487 227.022 547.811 299.388Z" fill="#3F3D56"/>
<path d="M399.272 370.388H396.658V476.828H399.272V370.388Z" fill="#3F3D56"/>
<path d="M423.398 383.952C423.565 421.172 398.161 451.465 398.161 451.465C398.161 451.465 372.487 421.414 372.321 384.195C372.155 346.976 397.558 316.682 397.558 316.682C397.558 316.682 423.232 346.733 423.398 383.952Z" fill="#3F3D56"/>
<path d="M450.8 491C489.917 491 521.627 485.99 521.627 479.809C521.627 473.628 489.917 468.618 450.8 468.618C411.683 468.618 379.972 473.628 379.972 479.809C379.972 485.99 411.683 491 450.8 491Z" fill="#3F3D56"/>
<path d="M456.641 218.987C450.641 208.536 438.769 208.049 438.769 208.049C438.769 208.049 427.2 206.524 419.779 222.441C412.862 237.278 403.316 251.603 418.242 255.076L420.939 246.426L422.608 255.72C424.734 255.877 426.866 255.915 428.995 255.832C444.98 255.3 460.203 255.988 459.713 250.075C459.061 242.215 462.415 229.043 456.641 218.987Z" fill="#2F2E41"/>
<path d="M435.031 238.669C435.031 238.669 442.786 249.86 438.133 258.92C433.48 267.979 448.99 277.571 448.99 277.571L460.364 251.992C460.364 251.992 446.922 242.933 450.541 234.406L435.031 238.669Z" fill="#FBBEBE"/>
<path d="M440.201 243.465C447.625 243.465 453.643 237.262 453.643 229.61C453.643 221.958 447.625 215.754 440.201 215.754C432.778 215.754 426.76 221.958 426.76 229.61C426.76 237.262 432.778 243.465 440.201 243.465Z" fill="#FBBEBE"/>
<path d="M393.683 245.627L404.916 230.688C404.916 230.688 408.871 215.028 414.6 215.822C420.328 216.616 412.337 234.602 412.337 234.602L401.176 251.138L393.683 245.627Z" fill="#FBBEBE"/>
<path d="M450.541 444.371L454.16 464.088L461.915 466.22L459.847 442.772L450.541 444.371Z" fill="#FBBEBE"/>
<path d="M528.607 423.055L542.566 442.772L548.253 445.437L552.906 437.443L538.947 418.791L528.607 423.055Z" fill="#FBBEBE"/>
<path d="M447.439 269.045L438.815 257.343C438.815 257.343 422.107 260.518 420.556 262.117C419.005 263.716 424.692 293.026 424.692 293.026C424.692 293.026 425.726 301.019 430.379 305.283L435.031 308.48L473.289 300.486L474.727 282.94C475.251 276.549 474.474 270.116 472.446 264.052C470.418 257.989 467.183 252.429 462.949 247.729V247.729L456.292 248.667L447.439 269.045Z" fill="#575A89"/>
<path d="M422.624 263.183L420.039 262.117L408.148 261.051C408.148 261.051 404.012 259.986 405.046 257.854C406.08 255.722 407.114 255.189 405.046 254.656C402.978 254.124 402.461 253.591 402.978 251.992C403.495 250.393 406.597 247.196 406.597 247.196L397.808 239.735C397.808 239.735 397.332 240.082 396.564 240.724C392.2 244.365 378.393 257.505 388.502 270.644C400.393 286.098 414.352 295.157 425.726 291.96L422.624 263.183Z" fill="#575A89"/>
<path d="M433.997 305.815V313.276C433.997 313.276 429.345 322.335 430.896 330.862C432.447 339.388 432.963 343.652 432.963 343.652C433.132 350.903 434.352 358.088 436.582 364.968C440.201 375.626 428.311 445.437 443.303 446.502C458.296 447.568 466.568 448.634 471.221 443.305C475.874 437.976 463.466 346.316 463.466 346.316C463.466 346.316 505.859 437.443 514.648 433.713C523.437 429.982 545.668 421.456 543.083 416.66C540.498 411.864 475.357 305.283 475.357 305.283L473.289 300.486L433.997 305.815Z" fill="#2F2E41"/>
<path d="M458.813 460.358C458.813 460.358 450.541 459.825 450.541 462.49C450.541 465.154 446.405 474.213 446.405 474.213C446.405 474.213 443.303 484.872 451.575 483.806C459.847 482.74 465.017 473.148 465.017 473.148L462.949 463.022L458.813 460.358Z" fill="#2F2E41"/>
<path d="M545.15 441.706C545.15 441.706 537.913 436.91 538.43 440.108C538.947 443.305 539.463 451.831 543.082 452.364C546.701 452.897 557.558 456.095 558.075 457.16C558.592 458.226 571 462.49 571 455.562C571 448.634 563.245 443.305 563.245 443.305L554.456 436.377C554.456 436.377 548.769 435.844 547.735 439.575C546.701 443.305 545.15 441.706 545.15 441.706Z" fill="#2F2E41"/>
<path d="M440.222 216.95C444.963 216.95 448.806 212.988 448.806 208.102C448.806 203.215 444.963 199.253 440.222 199.253C435.481 199.253 431.638 203.215 431.638 208.102C431.638 212.988 435.481 216.95 440.222 216.95Z" fill="#2F2E41"/>
<path d="M430.734 205.773C430.734 203.588 431.519 201.48 432.937 199.855C434.355 198.231 436.306 197.205 438.415 196.975C438.114 196.942 437.813 196.925 437.511 196.925C435.234 196.925 433.051 197.857 431.441 199.516C429.831 201.176 428.927 203.426 428.927 205.773C428.927 208.12 429.831 210.37 431.441 212.03C433.051 213.689 435.234 214.621 437.511 214.621C437.813 214.621 438.114 214.604 438.415 214.572C436.306 214.341 434.355 213.315 432.937 211.691C431.519 210.066 430.734 207.958 430.734 205.773V205.773Z" fill="#2F2E41"/>
<path d="M453.988 217.98L442.26 211.647L426.062 214.238L422.711 229.494L431.053 229.163L433.384 223.558V229.071L437.233 228.918L439.467 219.995L440.863 229.494L454.547 229.206L453.988 217.98Z" fill="#2F2E41"/>
<path d="M453.286 307.05L435.198 307.554C435.198 307.554 419.764 310.65 420.63 304.228C421.496 297.807 436.553 300.053 436.553 300.053L453.034 297.461L453.286 307.05Z" fill="#FBBEBE"/>
<path d="M467.597 246.825C468.506 246.684 469.435 246.881 470.215 247.382C470.996 247.883 471.578 248.655 471.855 249.558C475.396 261.06 486.305 299.552 475.467 304.833C462.7 311.052 453.384 310.779 453.384 310.779L448.397 298.124L452.937 293.732L457.783 261.611L460.105 247.995L467.597 246.825Z" fill="#575A89"/>
<path opacity="0.4" d="M464.242 268.246L462.174 289.562L444.079 297.555L464.242 292.759V268.246Z" fill="black"/>
<path d="M366.657 197.874C372.485 199.466 377.528 203.242 380.798 208.463L382.489 211.162L382.574 211.274L412.242 220.222C412.786 220.386 413.245 220.764 413.522 221.273C413.798 221.783 413.87 222.385 413.721 222.948L411.418 231.653C411.343 231.937 411.214 232.202 411.039 232.434C410.864 232.666 410.646 232.86 410.398 233.005C410.15 233.15 409.877 233.243 409.594 233.279C409.311 233.315 409.024 233.292 408.749 233.213L379.074 224.663L379.074 224.664L376.093 225.826C370.605 227.965 364.586 228.175 358.969 226.426V226.426L366.657 197.874Z" fill="#3F3D56"/>
<path d="M397.9 223.12C398.181 222.13 396.949 220.887 395.149 220.344C393.348 219.801 391.661 220.163 391.38 221.153C391.099 222.143 392.331 223.386 394.131 223.929C395.932 224.472 397.619 224.11 397.9 223.12Z" fill="#575A89"/>
<path d="M396.385 224.032C397.073 224.032 397.631 223.458 397.631 222.749C397.631 222.04 397.073 221.465 396.385 221.465C395.697 221.465 395.139 222.04 395.139 222.749C395.139 223.458 395.697 224.032 396.385 224.032Z" fill="#3F3D56"/>
<path d="M369.137 214.363C371.611 206.498 370.82 199.188 367.37 198.035C363.92 196.882 359.117 202.322 356.643 210.187C354.169 218.051 354.961 225.361 358.411 226.514C361.861 227.667 366.663 222.227 369.137 214.363Z" fill="#6C63FF"/>
<path opacity="0.4" d="M368.215 214.084C370.599 206.507 369.951 199.444 366.814 197.908C367.003 197.932 367.189 197.975 367.37 198.035C370.82 199.188 371.611 206.498 369.137 214.363C366.663 222.227 361.861 227.667 358.411 226.514C358.286 226.472 358.164 226.422 358.045 226.363C361.439 226.808 365.872 221.535 368.215 214.084Z" fill="black"/>
<path d="M367.047 197.902L299.715 144.065C287.809 134.476 276.383 124.269 265.483 113.484C246.289 94.6259 220.234 79.5483 189.898 71.5209C116.195 52.0178 57.8077 86.5992 31.2514 137.376C-9.32958 214.97 -40.4295 340.882 139.506 273.859C178.858 259.201 218.691 257.643 248.894 249.922L358.258 226.679L367.047 197.902Z" fill="#6C63FF"/>
<path d="M164.904 107.308C166.902 107.308 168.523 105.638 168.523 103.578C168.523 101.518 166.902 99.8475 164.904 99.8475C162.905 99.8475 161.285 101.518 161.285 103.578C161.285 105.638 162.905 107.308 164.904 107.308Z" fill="#F2F2F2"/>
<path d="M235.204 112.2H234.262V111.229H234.078V112.2H233.136V112.39H234.078V113.361H234.262V112.39H235.204V112.2Z" fill="#F2F2F2"/>
<path d="M329.814 193.202H328.872V192.231H328.688V193.202H327.746V193.392H328.688V194.363H328.872V193.392H329.814V193.202Z" fill="#F2F2F2"/>
<path d="M323.093 218.248H322.151V217.277H321.967V218.248H321.025V218.438H321.967V219.409H322.151V218.438H323.093V218.248Z" fill="#F2F2F2"/>
<path d="M34.095 239.565H33.1531V238.594H32.969V239.565H32.0271V239.754H32.969V240.725H33.1531V239.754H34.095V239.565Z" fill="#F2F2F2"/>
<path d="M75.4543 123.391H74.5123V122.42H74.3283V123.391H73.3863V123.581H74.3283V124.552H74.5123V123.581H75.4543V123.391Z" fill="#F2F2F2"/>
<path d="M236.238 222.512H235.296V221.541H235.112V222.512H234.17V222.701H235.112V223.672H235.296V222.701H236.238V222.512Z" fill="#F2F2F2"/>
<path d="M137.493 89.2853H136.551V88.3143H136.367V89.2853H135.425V89.475H136.367V90.446H136.551V89.475H137.493V89.2853Z" fill="#F2F2F2"/>
<path d="M137.855 166.012L136.682 166.198C137.049 168.618 137.338 171.091 137.55 173.537L138.734 173.43C138.522 170.952 138.227 168.458 137.855 166.012Z" fill="#E6E6E6"/>
<path d="M134.645 151.442L133.507 151.799C134.195 154.144 134.81 156.548 135.332 158.94L136.495 158.668C135.963 156.249 135.337 153.819 134.645 151.442Z" fill="#E6E6E6"/>
<path d="M129.521 137.47L128.441 137.981C129.433 140.214 130.364 142.505 131.207 144.797L132.318 144.365C131.465 142.047 130.529 139.724 129.521 137.47Z" fill="#E6E6E6"/>
<path d="M122.594 124.371L121.591 125.026C122.868 127.094 124.093 129.236 125.23 131.384L126.275 130.798C125.127 128.623 123.886 126.46 122.594 124.371Z" fill="#E6E6E6"/>
<path d="M113.981 112.364L113.076 113.158C114.616 115.024 116.116 116.974 117.532 118.946L118.484 118.216C117.057 116.223 115.542 114.251 113.981 112.364Z" fill="#E6E6E6"/>
<path d="M103.858 101.674L103.067 102.586C104.845 104.222 106.588 105.943 108.247 107.696L109.1 106.838C107.42 105.064 105.657 103.326 103.858 101.674Z" fill="#E6E6E6"/>
<path d="M92.422 92.4977L91.7551 93.5102C93.73 94.8797 95.6843 96.3399 97.5609 97.848L98.2951 96.8834C96.3925 95.3594 94.4176 93.8832 92.422 92.4977Z" fill="#E6E6E6"/>
<path d="M82.015 86.1241V87.5097C83.2506 88.1758 84.4759 88.8739 85.6753 89.588L86.2699 88.5275C84.874 87.6962 83.4557 86.895 82.015 86.1241Z" fill="#E6E6E6"/>
<path d="M137.935 181.096L139.124 181.074C139.146 182.311 139.147 183.554 139.129 184.77L137.94 184.751C137.958 183.549 137.957 182.319 137.935 181.096Z" fill="#E6E6E6"/>
<path d="M68.0614 270.994L66.8879 271.181C67.2549 273.6 67.5444 276.073 67.7564 278.519L68.9403 278.412C68.7283 275.934 68.4337 273.44 68.0614 270.994Z" fill="#E6E6E6"/>
<path d="M64.8509 256.425L63.7135 256.782C64.4011 259.126 65.0164 261.53 65.5385 263.923L66.7017 263.651C66.1692 261.231 65.5437 258.801 64.8509 256.425Z" fill="#E6E6E6"/>
<path d="M59.7276 242.452L58.6471 242.963C59.6397 245.196 60.5703 247.488 61.413 249.779L62.5245 249.348C61.6715 247.03 60.7357 244.706 59.7276 242.452Z" fill="#E6E6E6"/>
<path d="M52.7999 229.353L51.7969 230.009C53.0739 232.076 54.2991 234.218 55.4365 236.366L56.4808 235.78C55.3331 233.606 54.0923 231.442 52.7999 229.353Z" fill="#E6E6E6"/>
<path d="M44.1868 217.347L43.2821 218.141C44.8227 220.006 46.322 221.956 47.7386 223.928L48.6898 223.198C47.2629 221.205 45.7481 219.233 44.1868 217.347Z" fill="#E6E6E6"/>
<path d="M34.0641 206.657L33.2731 207.568C35.0516 209.204 36.7938 210.925 38.4534 212.678L39.3064 211.82C37.6262 210.046 35.8632 208.309 34.0641 206.657Z" fill="#E6E6E6"/>
<path d="M22.6283 197.48L21.9614 198.492C23.9363 199.862 25.8905 201.322 27.7672 202.83L28.5013 201.866C26.5988 200.342 24.6239 198.866 22.6283 197.48Z" fill="#E6E6E6"/>
<path d="M12.2213 191.106V192.492C13.4569 193.158 14.6821 193.856 15.8816 194.57L16.4761 193.51C15.0802 192.679 13.6619 191.877 12.2213 191.106Z" fill="#E6E6E6"/>
<path d="M68.1416 286.079L69.3299 286.056C69.3518 287.293 69.3534 288.537 69.3348 289.753L68.1465 289.733C68.1646 288.531 68.163 287.302 68.1416 286.079Z" fill="#E6E6E6"/>
<path d="M306.911 218.237L305.738 218.423C306.105 220.843 306.394 223.315 306.606 225.761L307.79 225.655C307.578 223.177 307.283 220.683 306.911 218.237Z" fill="#E6E6E6"/>
<path d="M303.701 203.667L302.563 204.024C303.251 206.369 303.866 208.772 304.388 211.165L305.551 210.893C305.019 208.474 304.393 206.044 303.701 203.667Z" fill="#E6E6E6"/>
<path d="M298.577 189.694L297.497 190.206C298.489 192.439 299.42 194.73 300.263 197.022L301.374 196.59C300.521 194.272 299.585 191.948 298.577 189.694Z" fill="#E6E6E6"/>
<path d="M291.65 176.595L290.647 177.251C291.924 179.319 293.149 181.461 294.286 183.608L295.331 183.022C294.183 180.848 292.942 178.684 291.65 176.595Z" fill="#E6E6E6"/>
<path d="M283.037 164.589L282.132 165.383C283.672 167.248 285.172 169.199 286.588 171.17L287.54 170.44C286.113 168.447 284.598 166.476 283.037 164.589Z" fill="#E6E6E6"/>
<path d="M272.914 153.899L272.123 154.81C273.901 156.446 275.644 158.168 277.303 159.921L278.156 159.063C276.476 157.288 274.713 155.551 272.914 153.899Z" fill="#E6E6E6"/>
<path d="M261.478 144.722L260.811 145.735C262.786 147.104 264.74 148.565 266.617 150.073L267.351 149.108C265.448 147.584 263.474 146.108 261.478 144.722Z" fill="#E6E6E6"/>
<path d="M251.071 138.349V139.734C252.307 140.4 253.532 141.099 254.731 141.813L255.326 140.752C253.93 139.921 252.512 139.12 251.071 138.349Z" fill="#E6E6E6"/>
<path d="M306.991 233.321L308.18 233.299C308.201 234.536 308.203 235.779 308.185 236.995L306.996 236.976C307.014 235.774 307.013 234.544 306.991 233.321Z" fill="#E6E6E6"/>
<path d="M77.1841 172.525H76.3078V171.621H76.1367V172.525H75.2599V172.701H76.1367V173.605H76.3078V172.701H77.1841V172.525Z" fill="#F2F2F2"/>
<path d="M67.0816 227.072H66.2053V226.168H66.0342V227.072H65.1574V227.248H66.0342V228.151H66.2053V227.248H67.0816V227.072Z" fill="#F2F2F2"/>
<path d="M37.4389 274.877H36.5621V273.974H36.391V274.877H35.5147V275.053H36.391V275.957H36.5621V275.053H37.4389V274.877Z" fill="#F2F2F2"/>
<path d="M119.9 214.245C111.425 201.259 107.745 185.573 109.527 170.03C111.31 154.487 118.437 140.117 129.617 129.527C140.796 118.936 155.287 112.826 170.463 112.304C185.638 111.782 200.492 116.882 212.332 126.681C224.171 136.48 232.212 150.328 234.996 165.713C237.78 181.099 235.123 197.004 227.507 210.543C219.89 224.083 207.819 234.361 193.482 239.513C179.144 244.665 163.49 244.35 149.359 238.626C148.443 241.997 146.73 245.081 144.374 247.602C142.018 250.123 139.092 252.003 135.859 253.072C132.625 254.142 129.185 254.369 125.845 253.732C122.506 253.095 119.372 251.614 116.724 249.423C114.076 247.231 111.996 244.397 110.672 241.174C109.347 237.95 108.818 234.439 109.133 230.953C109.447 227.468 110.596 224.117 112.475 221.201C114.354 218.286 116.905 215.895 119.9 214.245V214.245Z" fill="#3F3D56"/>
<path d="M172.224 140.307C186.779 140.307 196.794 148.629 196.794 160.591C196.794 168.513 193.067 173.994 185.887 178.355C179.133 182.396 176.843 185.357 176.843 190.478C176.843 190.893 176.764 191.304 176.61 191.688C176.456 192.071 176.23 192.42 175.945 192.713C175.66 193.007 175.322 193.239 174.95 193.398C174.578 193.557 174.179 193.639 173.777 193.639H166.336C165.541 193.639 164.777 193.321 164.206 192.752C163.634 192.183 163.299 191.407 163.271 190.588L163.258 190.198C162.598 181.956 165.393 176.835 172.418 172.594C178.978 168.553 181.734 165.993 181.734 161.031C181.734 156.07 177.076 152.429 171.293 152.429C166.897 152.429 163.418 154.635 161.823 158.236C161.262 159.455 160.374 160.483 159.264 161.198C158.155 161.913 156.869 162.286 155.561 162.272V162.272C150.519 162.272 147.188 156.745 149.546 152.152C153.276 144.885 161.146 140.307 172.224 140.307ZM162.016 208.882C162.016 204.281 165.742 200.64 170.322 200.64C174.941 200.64 178.667 204.241 178.667 208.882C178.667 213.523 174.941 217.124 170.322 217.124C165.703 217.124 162.016 213.523 162.016 208.882V208.882Z" fill="#6C63FF"/>
</g>
<defs>
<clipPath id="clip0_2:77">
<rect width="571" height="425" fill="white" transform="translate(0 66)"/>
</clipPath>
</defs>
</svg>
