<svg width="598" height="57" viewBox="0 0 598 57" fill="none" xmlns="http://www.w3.org/2000/svg">
<g opacity="0.35">
<path opacity="0.35" d="M595.214 41.3498C604.449 37.323 585.72 34.979 564.471 34.2082C543.221 33.4375 517.516 33.4801 503.937 31.288C490.803 29.1678 491.771 25.3981 490.666 21.9825C489.562 18.567 484.513 15.0649 464.02 14.3056C438.483 13.3595 396.37 17.0013 377.093 14.8149C359.103 12.7746 369.797 6.37453 343.564 6.12958C328.585 5.9897 309.288 8.09967 292.62 8.60892C280.806 9.12141 268.969 8.50429 257.272 6.76593C249.148 5.43493 243.49 3.74752 234.347 2.57187C210.342 -0.514728 163.378 0.522741 121.461 4.47864C79.5432 8.43454 43.6124 14.9175 23.3486 21.3386C3.08479 27.7596 -2.51364 34.0817 2.20662 39.4427C5.22075 42.8661 12.9338 46.0671 31.6437 47.4427C66.6394 50.0157 128.946 45.5868 165.108 47.9278C185.263 49.2325 194.204 52.4673 211.888 54.2373C230.886 56.1389 258.698 56.2396 286.023 56.1946C342.917 56.1007 401.266 55.5161 460.764 54.4442C485.615 53.9964 511.655 53.4143 538.099 51.2804C564.543 49.1466 591.515 45.0296 597.094 41.17" fill="white"/>
</g>
</svg>
