<svg width="541" height="631" viewBox="0 0 541 631" fill="none" xmlns="http://www.w3.org/2000/svg">
<path d="M441.467 143.417C496.542 184.078 521.297 248.819 533.788 314.554C546.176 379.746 545.195 447.446 510.071 504.441C472.75 565 413.088 612.48 341.452 626.649C268.873 641.004 195.114 618.489 133.453 578.932C71.0885 538.924 15.8758 482.55 5.44836 411.095C-4.63905 341.97 39.8071 280.515 81.5794 223.465C122.404 167.708 167.689 110.588 236.721 95.2338C307.884 79.4054 383.506 100.625 441.467 143.417Z" fill="#78D9B0"/>
<g clip-path="url(#clip0_5:170)">
<path d="M49.5849 360.468C49.8016 369.54 51.1564 378.533 53.6096 387.181C53.664 387.381 53.7243 387.579 53.7831 387.78H68.8012C68.7854 387.6 68.7691 387.399 68.7533 387.181C67.752 374.267 73.4726 296.61 80.3755 283.17C79.7707 284.26 48.4204 319.436 49.5849 360.468Z" fill="#E6E6E6"/>
<path d="M50.7118 387.181C50.8374 387.381 50.968 387.582 51.1018 387.78H62.3687C62.2834 387.609 62.1844 387.408 62.0696 387.181C60.2085 383.413 54.6995 372.147 49.586 360.468C44.0928 347.917 39.0489 334.89 39.4736 330.175C39.342 331.238 35.5392 363.655 50.7118 387.181Z" fill="#E6E6E6"/>
<path d="M233.334 373.904C233.444 378.513 234.133 383.082 235.379 387.475C235.407 387.577 235.437 387.678 235.467 387.78H243.097C243.089 387.688 243.081 387.586 243.073 387.475C242.564 380.915 245.471 341.46 248.978 334.632C248.671 335.185 232.743 353.057 233.334 373.904Z" fill="#E6E6E6"/>
<path d="M233.907 387.475C233.971 387.577 234.037 387.679 234.105 387.78H239.829C239.786 387.693 239.736 387.591 239.677 387.475C238.732 385.561 235.933 379.837 233.335 373.904C230.544 367.527 227.981 360.909 228.197 358.513C228.13 359.053 226.198 375.523 233.907 387.475Z" fill="#E6E6E6"/>
<path d="M188.162 111.133L168.741 126.63L180.826 128.082L197.659 112.103L188.162 111.133Z" fill="#3F3D56"/>
<path d="M112.177 375.725L123.858 375.724L129.415 325.181L112.174 325.182L112.177 375.725Z" fill="#9F616A"/>
<path d="M109.197 371.447L132.202 371.446H132.203C136.091 371.446 139.82 373.178 142.569 376.262C145.318 379.347 146.863 383.529 146.863 387.891V388.425L109.197 388.427L109.197 371.447Z" fill="#2F2E41"/>
<path d="M104.832 195.197C104.832 195.197 99.7698 201.617 108.153 226.641L106.676 363.853L133.843 363.258L139.814 296.327L150.687 198.656L104.832 195.197Z" fill="#2F2E41"/>
<path d="M77.7089 173.537C76.1039 173.532 74.5637 172.826 73.4153 171.568C72.2668 170.31 71.6006 168.6 71.5579 166.8L70.283 112.905L92.0973 66.4814C92.5926 65.436 93.3173 64.5495 94.2031 63.9058C95.0888 63.262 96.1062 62.8822 97.1592 62.8024L113.784 61.6051L112.348 170.242L78.2496 173.511C78.0686 173.529 77.8884 173.537 77.7089 173.537Z" fill="#5046E2"/>
<path d="M160.004 214.168L159.707 214.117C124.953 208.171 98.7272 202.471 98.4664 202.414L98.1406 202.343L107.251 177.486C107.179 174.889 105.207 101.952 108.982 80.9959C112.637 60.7096 129.864 57.3851 131.827 57.0723L133.798 49.7461L158.701 64.282L163.044 81.0498L163.926 127.006L160.004 214.168Z" fill="#3F3D56"/>
<path d="M125.782 144.593C109.737 144.593 96.6842 125.024 96.6842 100.971C96.6842 76.9177 109.737 57.349 125.782 57.349C141.826 57.349 154.879 76.9177 154.879 100.971C154.879 125.024 141.826 144.593 125.782 144.593ZM125.782 61.6197C111.837 61.6197 100.491 79.2726 100.491 100.971C100.491 122.669 111.837 140.322 125.782 140.322C139.727 140.322 151.072 122.669 151.072 100.971C151.072 79.2726 139.727 61.6197 125.782 61.6197Z" fill="#5046E2"/>
<path d="M175.003 119.579C173.881 119.579 172.772 119.839 171.745 120.343C170.717 120.847 169.794 121.584 169.033 122.508H127.175L111.843 126.169L114.36 147.948L168.901 134.791C169.804 135.934 170.948 136.806 172.229 137.327C173.51 137.847 174.886 138 176.233 137.77C177.579 137.54 178.853 136.935 179.938 136.011C181.023 135.087 181.884 133.873 182.443 132.48C183.002 131.086 183.241 129.558 183.138 128.035C183.035 126.511 182.593 125.041 181.853 123.758C181.113 122.475 180.099 121.42 178.902 120.69C177.706 119.96 176.365 119.578 175.003 119.579Z" fill="#9F616A"/>
<path d="M171.93 46.6599C179.808 37.8227 179.808 23.4948 171.93 14.6575C164.051 5.82034 151.279 5.82034 143.401 14.6575C135.523 23.4948 135.523 37.8227 143.401 46.6599C151.279 55.4971 164.051 55.4971 171.93 46.6599Z" fill="#9F616A"/>
<path d="M138.692 12.5679L137.714 10.3599L142.635 7.61728C142.635 7.61728 148.064 -2.29101 157.887 0.493435C167.71 3.27788 172.13 4.94432 172.13 4.94432L177.038 7.7148L174.575 10.4644L178.994 12.1309L176.042 13.7764L179.477 15.9914L177.628 27.3462C177.628 27.3462 174.556 18.734 168.651 22.0251C162.746 25.3163 151.945 20.3238 151.945 20.3238L142.561 40.6958C142.561 40.6958 140.625 33.5544 137.173 35.4587C137.173 35.4587 128.355 19.7057 138.692 12.5679Z" fill="#2F2E41"/>
<path d="M313.977 151.882L313.115 133.742L304.413 125.811L299.372 142.609L271.176 184.793C269.843 185.033 268.599 185.695 267.591 186.703C266.583 187.711 265.854 189.022 265.489 190.48C265.125 191.938 265.14 193.483 265.534 194.931C265.927 196.38 266.683 197.672 267.71 198.654C268.738 199.636 269.995 200.268 271.332 200.474C272.67 200.68 274.032 200.452 275.258 199.817C276.483 199.181 277.521 198.166 278.248 196.89C278.975 195.614 279.361 194.131 279.36 192.616C279.36 192.51 279.35 192.406 279.346 192.3L313.977 151.882Z" fill="#FFB7B7"/>
<path d="M330.734 380.509L324.067 380.508L320.894 351.658L330.735 351.659L330.734 380.509Z" fill="#FFB7B7"/>
<path d="M332.435 387.759L310.935 387.758V387.453C310.935 384.964 311.817 382.576 313.386 380.816C314.956 379.055 317.084 378.066 319.303 378.066H319.304L332.435 378.067L332.435 387.759Z" fill="#2F2E41"/>
<path d="M361.735 380.509L355.068 380.508L351.896 351.658L361.736 351.659L361.735 380.509Z" fill="#FFB7B7"/>
<path d="M363.436 387.759L341.936 387.758V387.453C341.936 384.964 342.818 382.576 344.387 380.816C345.957 379.055 348.085 378.066 350.304 378.066H350.305L363.436 378.067L363.436 387.759Z" fill="#2F2E41"/>
<path d="M354.688 76.101C357.511 63.0259 359.903 48.2785 354.579 36.2361C350.885 27.8805 337.219 25.0667 329.385 28.0769C321.552 31.0871 315.888 39.254 313.397 48.1584C310.906 57.0629 311.195 66.6581 312.281 75.915C326.688 75.6045 341.096 75.294 354.688 76.101Z" fill="#2F2E41"/>
<path d="M338.434 73.7881C346.575 68.7956 349.567 57.3449 345.117 48.2122C340.666 39.0795 330.458 35.723 322.317 40.7155C314.175 45.7079 311.183 57.1586 315.634 66.2913C320.084 75.4241 330.292 78.7805 338.434 73.7881Z" fill="#FFB8B8"/>
<path d="M350.913 53.3696C350.967 50.1978 350.451 47.0462 349.398 44.1023C348.344 41.1584 346.773 38.4821 344.779 36.2325C342.785 33.9828 340.408 32.2058 337.79 31.0069C335.172 29.8081 332.365 29.2118 329.537 29.2536C326.709 29.2954 323.918 29.9745 321.329 31.2504C318.739 32.5262 316.405 34.3729 314.465 36.6807C312.524 38.9885 311.017 41.7103 310.033 44.6844C309.049 47.6585 308.607 50.8242 308.735 53.9933C323.115 54.0276 337.495 54.0618 350.913 53.3696Z" fill="#2F2E41"/>
<path d="M303.397 170.793C303.397 170.793 300.663 215.337 302.146 228.925C303.63 242.513 319.784 361.306 319.784 361.306L331.97 361.281L335.587 221.292L349.997 362.642L362.598 361.172L369.747 222.906C369.747 222.906 368.626 171.142 359.515 165.951L303.397 170.793Z" fill="#2F2E41"/>
<path d="M322.51 214.948C313.56 214.945 304.739 212.549 296.779 207.959L296.605 207.859L303.34 157.726L302.903 97.9773C302.891 96.3374 303.171 94.7112 303.725 93.1936C304.279 91.6761 305.097 90.2975 306.132 89.1384C307.166 87.9794 308.396 87.063 309.749 86.4427C311.103 85.8224 312.553 85.5107 314.015 85.5258L350.156 85.8978C351.756 85.9143 353.336 86.3 354.797 87.0308C356.259 87.7617 357.571 88.8222 358.651 90.1462C359.732 91.4702 360.558 93.0295 361.078 94.727C361.599 96.4246 361.802 98.224 361.675 100.013L358.293 147.912L369.478 186.79L367.534 189.689C362.293 197.532 355.496 203.897 347.681 208.281C339.866 212.666 331.248 214.948 322.51 214.948V214.948Z" fill="#3F3D56"/>
<path d="M299.272 137.072L303.059 93.7236L304.276 91.7807C305.11 90.4501 306.17 89.3172 307.395 88.4473C308.62 87.5773 309.986 86.9873 311.415 86.7111C312.844 86.435 314.308 86.4781 315.722 86.838C317.136 87.198 318.472 87.8677 319.655 88.8086L320.698 89.6388L319.668 133.569L299.272 137.072Z" fill="#3F3D56"/>
<path d="M454.454 348.856C464.244 345.823 468.422 362.5 458.657 365.631C448.867 368.665 444.689 351.987 454.454 348.856Z" fill="#3F3D56"/>
<path d="M400.171 370.322C409.961 367.288 414.139 383.965 404.374 387.096C394.584 390.13 390.406 373.452 400.171 370.322Z" fill="#3F3D56"/>
<path d="M378.202 194.426L378.353 194.379L403.571 271.179L406.896 270.13L381.497 192.779C381.442 191.587 381.025 190.452 380.316 189.562C379.606 188.673 378.647 188.082 377.597 187.888C364.985 185.651 359.873 198.209 359.873 198.209L359.924 198.292L385.706 276.811L389.031 275.763L364.007 199.554C371.625 191.102 378.202 194.426 378.202 194.426Z" fill="#3F3D56"/>
<path d="M407.104 374.642C403.506 374.607 400.011 373.284 397.13 370.866C394.249 368.448 392.131 365.062 391.086 361.2C386.273 343.528 374.917 301.187 373.412 289.697C371.453 274.736 382.492 270.481 382.738 270.39C383.035 270.278 387.474 268.884 393.616 266.956C404.058 263.678 419.838 258.724 420.418 258.431C422.863 257.478 425.458 257.101 428.039 257.324C430.62 257.548 433.131 258.367 435.417 259.731C437.773 261.121 439.852 263.033 441.528 265.353C443.204 267.672 444.442 270.35 445.166 273.222L461.41 338.047C462.412 342.021 462.131 346.264 460.616 350.028C459.101 353.793 456.45 356.836 453.13 358.621C440.597 365.375 422.215 374.386 407.351 374.64C407.269 374.641 407.186 374.642 407.104 374.642Z" fill="#5046E2"/>
<path d="M375.52 191.77L367.355 138.266L366.443 120.209L353.243 125.059L364.376 195.119C363.927 196.483 363.82 197.958 364.068 199.385C364.316 200.812 364.909 202.135 365.782 203.209C366.655 204.283 367.775 205.068 369.018 205.476C370.262 205.885 371.582 205.902 372.833 205.526C374.085 205.15 375.221 204.395 376.116 203.343C377.011 202.292 377.631 200.985 377.908 199.565C378.185 198.145 378.109 196.667 377.688 195.292C377.267 193.917 376.517 192.699 375.52 191.77V191.77Z" fill="#FFB7B7"/>
<path d="M369.588 134.91L348.984 133.653L344.143 90.044L344.614 89.5855C345.775 88.4566 347.122 87.5959 348.58 87.0527C350.037 86.5096 351.576 86.2947 353.108 86.4204C354.639 86.5461 356.134 87.0099 357.506 87.7852C358.877 88.5605 360.099 89.632 361.1 90.9383L362.053 92.1817L362.067 92.2603L369.588 134.91Z" fill="#3F3D56"/>
<path d="M453.491 347.927L432.432 267.973L382.912 283.671L382.616 282.498L433.171 266.471L433.323 267.049L454.534 347.582L453.491 347.927Z" fill="#3F3D56"/>
<path d="M79.2807 167.804L77.0382 112.956L100.007 62.5904L100.975 63.1462L78.1385 113.223L80.3673 167.748L79.2807 167.804Z" fill="#3F3D56"/>
<path d="M501.456 389H0.543879C0.399633 389 0.261295 388.936 0.159298 388.821C0.0573009 388.707 0 388.552 0 388.39C0 388.228 0.0573009 388.073 0.159298 387.959C0.261295 387.844 0.399633 387.78 0.543879 387.78H501.456C501.6 387.78 501.739 387.844 501.841 387.959C501.943 388.073 502 388.228 502 388.39C502 388.552 501.943 388.707 501.841 388.821C501.739 388.936 501.6 389 501.456 389Z" fill="#CCCCCC"/>
<path d="M114.628 152.031L109.842 136.059L108.684 82.8167L110.723 75.2626C111.457 72.5437 112.673 70.0191 114.298 67.84C115.923 65.6609 117.923 63.8721 120.179 62.581C122.435 61.2898 124.9 60.5228 127.426 60.3259C129.953 60.129 132.488 60.5063 134.882 61.4351C137.275 62.364 139.477 63.8252 141.354 65.7314C143.232 67.6375 144.748 69.9493 145.81 72.5282C146.872 75.1071 147.459 77.9 147.536 80.7395C147.613 83.579 147.178 86.4067 146.257 89.0532L135.326 120.477L135.881 121.686L159.565 121.471L167.978 138.458L114.628 152.031Z" fill="#3F3D56"/>
<path d="M265.503 265.692L265.486 265.696L239.236 271.591L216.655 281.792C216.363 281.924 216.051 281.99 215.736 281.986C215.421 281.983 215.11 281.91 214.821 281.771C214.531 281.633 214.269 281.432 214.049 281.18C213.828 280.928 213.654 280.63 213.537 280.302C213.509 280.225 213.485 280.147 213.463 280.067L196.967 218.105C196.794 217.463 196.841 216.771 197.101 216.167C197.36 215.563 197.813 215.09 198.368 214.842L221.362 204.454L221.379 204.45L247.629 198.555L270.211 188.354C270.8 188.088 271.46 188.095 272.045 188.375C272.629 188.654 273.091 189.183 273.329 189.844C273.356 189.921 273.381 189.999 273.402 190.079L289.898 252.042C290.072 252.683 290.024 253.375 289.765 253.979C289.505 254.584 289.053 255.057 288.497 255.305L265.503 265.692Z" fill="#E5E5E5"/>
<path d="M237.335 224.071C231.315 221.688 225.094 219.601 218.844 217.867L218.53 217.78L221.703 229.698L237.869 224.282L237.335 224.071ZM221.951 229.184L219.068 218.356C225.017 220.017 230.936 221.998 236.678 224.25L221.951 229.184ZM268.878 240.182C266.076 238.405 263.233 236.703 260.351 235.076C259.556 234.627 258.759 234.184 257.959 233.748C253.078 231.085 248.122 228.656 243.091 226.463L243.033 226.437L222.653 233.265L228.218 254.169L269.255 240.422L268.878 240.182ZM228.466 253.655L223.112 233.543L243.017 226.874C247.868 228.99 252.664 231.334 257.404 233.906C258.227 234.353 259.047 234.806 259.864 235.265C262.718 236.869 265.537 238.548 268.319 240.304L228.466 253.655ZM268.878 240.182C266.076 238.405 263.233 236.703 260.351 235.076C259.556 234.627 258.759 234.184 257.959 233.748C253.078 231.085 248.122 228.656 243.091 226.463L243.033 226.437L222.653 233.265L228.218 254.169L269.255 240.422L268.878 240.182ZM228.466 253.655L223.112 233.543L243.017 226.874C247.868 228.99 252.664 231.334 257.404 233.906C258.227 234.353 259.047 234.806 259.864 235.265C262.718 236.869 265.537 238.548 268.319 240.304L228.466 253.655ZM237.335 224.071C231.315 221.688 225.094 219.601 218.844 217.867L218.53 217.78L221.703 229.698L237.869 224.282L237.335 224.071ZM221.951 229.184L219.068 218.356C225.017 220.017 230.936 221.998 236.678 224.25L221.951 229.184ZM237.335 224.071C231.315 221.688 225.094 219.601 218.844 217.867L218.53 217.78L221.703 229.698L237.869 224.282L237.335 224.071ZM221.951 229.184L219.068 218.356C225.017 220.017 230.936 221.998 236.678 224.25L221.951 229.184ZM268.878 240.182C266.076 238.405 263.233 236.703 260.351 235.076C259.556 234.627 258.759 234.184 257.959 233.748C253.078 231.085 248.122 228.656 243.091 226.463L243.033 226.437L222.653 233.265L228.218 254.169L269.255 240.422L268.878 240.182ZM228.466 253.655L223.112 233.543L243.017 226.874C247.868 228.99 252.664 231.334 257.404 233.906C258.227 234.353 259.047 234.806 259.864 235.265C262.718 236.869 265.537 238.548 268.319 240.304L228.466 253.655ZM211.682 263.594L211.788 263.99L225.741 259.316L227.27 265.062L213.318 269.736L213.423 270.132L227.729 265.34L225.988 258.801L211.682 263.594ZM231.858 267.841L232.927 271.857L233.271 271.702L232.317 268.119L286.722 249.893L286.617 249.497L231.858 267.841ZM284.032 239.788L283.926 239.392L229.168 257.736L230.909 264.275L285.667 245.93L285.561 245.534L231.156 263.76L229.627 258.014L284.032 239.788ZM243.364 222.01C235.025 218.416 226.459 215.523 217.737 213.357L216.669 209.344L216.326 209.499L217.402 213.543L217.764 213.787C226.452 215.951 234.984 218.837 243.291 222.421L243.35 222.447L276.462 211.354L276.356 210.958L243.364 222.01ZM218.065 230.485L204.112 235.16L204.218 235.556L218.524 230.763L213.234 210.895L212.891 211.05L218.065 230.485ZM277.411 214.921L248.302 224.672L248.776 224.895C253.241 227.003 257.694 229.333 262.135 231.884C262.766 232.247 263.397 232.614 264.027 232.987C267.162 234.834 270.273 236.784 273.36 238.836L273.703 238.932L282.977 235.825L282.871 235.429L273.62 238.528C270.566 236.495 267.483 234.56 264.373 232.723C263.75 232.355 263.128 231.992 262.504 231.632C258.156 229.128 253.785 226.83 249.391 224.739L277.517 215.317L277.411 214.921ZM214.373 273.699L214.478 274.095L228.431 269.421L229.492 273.408L229.836 273.253L228.679 268.906L214.373 273.699ZM205.167 239.123L205.273 239.519L219.226 234.845L224.58 254.956L210.627 259.631L210.733 260.027L225.039 255.234L219.473 234.33L205.167 239.123ZM237.335 224.071C231.315 221.688 225.094 219.601 218.844 217.867L218.53 217.78L221.703 229.698L237.869 224.282L237.335 224.071ZM221.951 229.184L219.068 218.356C225.017 220.017 230.936 221.998 236.678 224.25L221.951 229.184ZM268.878 240.182C266.076 238.405 263.233 236.703 260.351 235.076C259.556 234.627 258.759 234.184 257.959 233.748C253.078 231.085 248.122 228.656 243.091 226.463L243.033 226.438L222.653 233.265L228.218 254.169L269.255 240.422L268.878 240.182ZM228.466 253.655L223.112 233.543L243.017 226.874C247.868 228.99 252.664 231.334 257.404 233.906C258.227 234.353 259.047 234.806 259.864 235.265C262.718 236.869 265.537 238.548 268.319 240.304L228.466 253.655ZM237.335 224.071C231.315 221.688 225.094 219.601 218.844 217.867L218.53 217.78L221.703 229.698L237.869 224.282L237.335 224.071ZM221.951 229.184L219.068 218.356C225.017 220.017 230.936 221.998 236.678 224.25L221.951 229.184ZM268.878 240.182C266.076 238.405 263.233 236.703 260.351 235.076C259.556 234.627 258.759 234.184 257.959 233.748C253.078 231.085 248.122 228.656 243.091 226.463L243.033 226.437L222.653 233.265L228.218 254.169L269.255 240.422L268.878 240.182ZM228.466 253.655L223.112 233.543L243.017 226.874C247.868 228.99 252.664 231.334 257.404 233.906C258.227 234.353 259.047 234.806 259.864 235.265C262.718 236.869 265.537 238.548 268.319 240.304L228.466 253.655Z" fill="white"/>
<path d="M242.022 225.937C243.358 230.956 238.234 244.849 238.234 244.849C238.234 244.849 227.158 236.383 225.822 231.365C225.18 228.955 225.418 226.358 226.484 224.145C227.549 221.932 229.355 220.284 231.503 219.565C233.651 218.845 235.966 219.112 237.939 220.307C239.912 221.502 241.38 223.528 242.022 225.937H242.022Z" fill="#5046E2"/>
<path d="M237.52 227.015C237.738 227.837 237.735 228.713 237.51 229.532C237.285 230.352 236.848 231.078 236.256 231.619C235.663 232.16 234.94 232.492 234.179 232.572C233.418 232.652 232.653 232.478 231.98 232.07C231.308 231.663 230.758 231.041 230.401 230.283C230.043 229.525 229.894 228.665 229.972 227.812C230.051 226.96 230.353 226.152 230.84 225.491C231.327 224.831 231.979 224.348 232.711 224.102C233.197 223.939 233.707 223.885 234.212 223.943C234.717 224.001 235.207 224.17 235.654 224.441C236.1 224.711 236.495 225.078 236.815 225.52C237.135 225.962 237.375 226.47 237.52 227.015Z" fill="white"/>
<path d="M239.328 251.513C240.586 251.513 241.607 250.369 241.607 248.957C241.607 247.545 240.586 246.401 239.328 246.401C238.069 246.401 237.049 247.545 237.049 248.957C237.049 250.369 238.069 251.513 239.328 251.513Z" fill="#5046E2"/>
<path d="M264.194 215.347L248.356 220.652C248.337 220.659 248.316 220.664 248.296 220.667L251.911 203.604C251.933 203.498 251.979 203.4 252.045 203.321C252.112 203.242 252.195 203.183 252.288 203.152C252.381 203.121 252.48 203.118 252.574 203.144C252.668 203.17 252.754 203.223 252.824 203.298L260.451 211.381L260.817 211.767L264.194 215.347Z" fill="white"/>
<path opacity="0.2" d="M264.193 215.347L258.786 217.158L260.289 211.944L260.397 211.568L260.452 211.381L260.816 211.767L264.193 215.347Z" fill="black"/>
<path d="M273.012 212.393L259.314 216.982L260.817 211.767L260.925 211.392L262.883 204.597C262.921 204.49 262.979 204.394 263.053 204.314C263.126 204.234 263.214 204.172 263.31 204.133C263.407 204.094 263.509 204.077 263.611 204.085C263.713 204.093 263.813 204.125 263.903 204.179C263.927 204.195 263.95 204.213 263.972 204.232L273.012 212.393Z" fill="white"/>
<path d="M246 10C234.33 10 223.139 14.2258 214.887 21.7476C206.636 29.2694 202 39.4712 202 50.1086C202 72.2601 246 145 246 145C246 145 290 72.2601 290 50.1086C290 39.4712 285.364 29.2694 277.113 21.7476C268.861 14.2258 257.67 10 246 10ZM246 69.6739C241.967 69.6739 238.025 68.5838 234.672 66.5415C231.319 64.4991 228.705 61.5962 227.162 58.1998C225.618 54.8035 225.215 51.0663 226.001 47.4607C226.788 43.8552 228.73 40.5433 231.582 37.9439C234.434 35.3444 238.067 33.5742 242.022 32.857C245.977 32.1398 250.077 32.508 253.803 33.9148C257.529 35.3216 260.714 37.7039 262.954 40.7606C265.195 43.8172 266.39 47.4108 266.39 51.0869C266.39 53.5278 265.863 55.9448 264.838 58.1999C263.814 60.455 262.312 62.504 260.418 64.23C258.525 65.9559 256.277 67.325 253.803 68.2591C251.329 69.1932 248.678 69.674 246 69.6739V69.6739Z" fill="#6C63FF"/>
</g>
<defs>
<clipPath id="clip0_5:170">
<rect width="502" height="389" fill="white"/>
</clipPath>
</defs>
</svg>
