<svg width="1330" height="1361" viewBox="0 0 1330 1361" fill="none" xmlns="http://www.w3.org/2000/svg">
<path d="M1003.83 65.6107C1171.21 165.271 1281.07 356.517 1317.88 562.519C1353.61 762.456 1309.66 975.147 1194.86 1134.72C1090.17 1280.26 917.02 1324.43 750.46 1351.28C600.855 1375.4 452.049 1356.21 319.532 1275.84C178.076 1190.05 30.3012 1073.91 3.39728 898.202C-22.7722 727.29 108.199 589.951 192.075 443.429C275.163 298.285 337.559 130.83 480.857 64.1343C647.849 -13.5897 844.319 -29.3638 1003.83 65.6107Z" fill="#3E9A9F"/>
<g clip-path="url(#clip0_7_58)">
<path d="M258.887 998.714C259.336 1016.07 262.148 1033.28 267.238 1049.83C267.351 1050.21 267.476 1050.59 267.598 1050.97H298.76C298.727 1050.63 298.693 1050.24 298.66 1049.83C296.583 1025.12 308.453 876.53 322.776 850.813C321.521 852.9 256.47 920.205 258.887 998.714Z" fill="#E6E6E6"/>
<path d="M261.225 1049.83C261.486 1050.21 261.756 1050.59 262.034 1050.97H285.413C285.235 1050.65 285.03 1050.26 284.792 1049.83C280.93 1042.62 269.499 1021.06 258.889 998.714C247.491 974.7 237.025 949.774 237.906 940.753C237.633 942.787 229.742 1004.81 261.225 1049.83Z" fill="#E6E6E6"/>
<path d="M640.16 1024.42C640.388 1033.24 641.816 1041.98 644.402 1050.39C644.46 1050.59 644.523 1050.78 644.585 1050.97H660.418C660.401 1050.8 660.384 1050.6 660.367 1050.39C659.312 1037.84 665.342 962.345 672.619 949.28C671.982 950.34 638.932 984.535 640.16 1024.42Z" fill="#E6E6E6"/>
<path d="M641.348 1050.39C641.48 1050.59 641.618 1050.78 641.759 1050.97H653.636C653.546 1050.81 653.442 1050.61 653.321 1050.39C651.359 1046.73 645.551 1035.78 640.161 1024.42C634.37 1012.22 629.052 999.558 629.5 994.975C629.361 996.008 625.353 1027.52 641.348 1050.39Z" fill="#E6E6E6"/>
<path d="M546.43 521.641L506.13 551.292L531.206 554.07L566.134 523.497L546.43 521.641Z" fill="#3F3D56"/>
<path d="M388.762 1027.91L413.001 1027.91L424.532 931.198L388.758 931.199L388.762 1027.91Z" fill="#9F616A"/>
<path d="M382.579 1019.72L430.313 1019.72H430.315C438.383 1019.72 446.12 1023.03 451.825 1028.94C457.53 1034.84 460.735 1042.84 460.736 1051.19V1052.21L382.58 1052.21L382.579 1019.72Z" fill="#2F2E41"/>
<path d="M373.523 682.488C373.523 682.488 363.018 694.771 380.413 742.651L377.349 1005.19L433.719 1004.05L446.11 875.989L468.669 689.106L373.523 682.488Z" fill="#2F2E41"/>
<path d="M317.243 641.043C313.913 641.034 310.717 639.683 308.334 637.276C305.951 634.869 304.568 631.597 304.48 628.153L301.834 525.032L347.098 436.205C348.126 434.204 349.63 432.508 351.468 431.277C353.305 430.045 355.417 429.318 357.601 429.165L392.097 426.875L389.118 634.739L318.365 640.994C317.989 641.027 317.615 641.044 317.243 641.043Z" fill="#F33187"/>
<path d="M488.003 718.786L487.385 718.688C415.273 707.312 360.855 696.405 360.314 696.296L359.638 696.161L378.542 648.6C378.392 643.631 374.3 504.073 382.134 463.977C389.717 425.161 425.462 418.8 429.535 418.201L433.625 404.184L485.298 431.997L494.31 464.08L496.14 552.012L488.003 718.786Z" fill="#3F3D56"/>
<path d="M416.992 585.662C383.701 585.662 356.616 548.22 356.616 502.197C356.616 456.173 383.701 418.731 416.992 418.731C450.284 418.731 477.368 456.173 477.368 502.197C477.368 548.22 450.284 585.662 416.992 585.662ZM416.992 426.902C388.057 426.902 364.516 460.679 364.516 502.197C364.516 543.714 388.057 577.491 416.992 577.491C445.928 577.491 469.469 543.714 469.469 502.197C469.469 460.679 445.928 426.902 416.992 426.902Z" fill="#F33187"/>
<path d="M519.124 537.801C516.797 537.8 514.495 538.298 512.363 539.262C510.231 540.227 508.316 541.637 506.736 543.405H419.884L388.07 550.41L393.293 592.083L506.463 566.907C508.337 569.095 510.711 570.764 513.368 571.76C516.026 572.755 518.882 573.047 521.676 572.607C524.47 572.167 527.114 571.011 529.364 569.243C531.615 567.475 533.402 565.151 534.562 562.485C535.722 559.819 536.217 556.895 536.004 553.98C535.79 551.065 534.874 548.251 533.338 545.796C531.803 543.342 529.698 541.324 527.215 539.927C524.732 538.531 521.95 537.8 519.124 537.801Z" fill="#9F616A"/>
<path d="M512.747 398.278C529.094 381.369 529.094 353.955 512.747 337.046C496.4 320.137 469.897 320.137 453.551 337.046C437.204 353.955 437.204 381.369 453.551 398.278C469.897 415.187 496.4 415.187 512.747 398.278Z" fill="#9F616A"/>
<path d="M443.78 333.047L441.751 328.823L451.962 323.575C451.962 323.575 463.226 304.616 483.609 309.944C503.992 315.272 513.162 318.46 513.162 318.46L523.347 323.761L518.235 329.022L527.406 332.211L521.279 335.36L528.407 339.598L524.57 361.324C524.57 361.324 518.197 344.845 505.944 351.143C493.691 357.44 471.279 347.887 471.279 347.887L451.808 386.867C451.808 386.867 447.791 373.203 440.629 376.846C440.629 376.846 422.332 346.705 443.78 333.047Z" fill="#2F2E41"/>
<path d="M807.49 599.61L805.701 564.9L787.645 549.725L777.184 581.866L718.679 662.58C715.913 663.039 713.332 664.307 711.241 666.236C709.15 668.164 707.636 670.671 706.88 673.462C706.123 676.252 706.155 679.207 706.972 681.979C707.789 684.751 709.356 687.223 711.488 689.102C713.62 690.982 716.228 692.19 719.004 692.584C721.779 692.978 724.605 692.542 727.148 691.326C729.691 690.111 731.845 688.168 733.353 685.726C734.862 683.285 735.663 680.447 735.662 677.549C735.662 677.345 735.64 677.147 735.632 676.945L807.49 599.61Z" fill="#FFB7B7"/>
<path d="M842.26 1037.06L828.426 1037.06L821.843 981.858L842.263 981.86L842.26 1037.06Z" fill="#FFB7B7"/>
<path d="M845.789 1050.93L801.178 1050.93V1050.35C801.178 1045.58 803.008 1041.02 806.264 1037.65C809.52 1034.28 813.937 1032.39 818.542 1032.39H818.543L845.79 1032.39L845.789 1050.93Z" fill="#2F2E41"/>
<path d="M906.587 1037.06L892.752 1037.06L886.169 981.858L906.589 981.86L906.587 1037.06Z" fill="#FFB7B7"/>
<path d="M910.115 1050.93L865.504 1050.93V1050.35C865.504 1045.58 867.334 1041.02 870.59 1037.65C873.846 1034.28 878.263 1032.39 882.868 1032.39H882.869L910.116 1032.39L910.115 1050.93Z" fill="#2F2E41"/>
<path d="M891.963 454.611C897.821 429.593 902.784 401.375 891.737 378.334C884.072 362.346 855.716 356.962 839.461 362.722C823.207 368.482 811.455 384.108 806.286 401.146C801.118 418.183 801.718 436.543 803.971 454.255C833.865 453.661 863.76 453.067 891.963 454.611Z" fill="#2F2E41"/>
<path d="M858.237 450.185C875.13 440.633 881.338 418.723 872.104 401.249C862.869 383.774 841.688 377.352 824.795 386.904C807.901 396.457 801.693 418.367 810.928 435.841C820.162 453.316 841.343 459.738 858.237 450.185Z" fill="#FFB8B8"/>
<path d="M884.132 411.117C884.242 405.048 883.173 399.018 880.986 393.385C878.8 387.752 875.541 382.631 871.403 378.327C867.266 374.022 862.334 370.622 856.901 368.328C851.468 366.034 845.645 364.894 839.777 364.974C833.909 365.054 828.117 366.353 822.744 368.794C817.372 371.235 812.528 374.769 808.502 379.184C804.475 383.6 801.348 388.808 799.306 394.499C797.264 400.189 796.348 406.246 796.613 412.31C826.451 412.376 856.288 412.441 884.132 411.117Z" fill="#2F2E41"/>
<path d="M785.536 635.794C785.536 635.794 779.863 721.024 782.942 747.023C786.02 773.022 819.54 1000.32 819.54 1000.32L844.824 1000.27L852.33 732.417L882.229 1002.87L908.377 1000.06L923.21 735.506C923.21 735.506 920.884 636.46 901.979 626.528L785.536 635.794Z" fill="#2F2E41"/>
<path d="M825.196 720.28C806.625 720.273 788.322 715.688 771.805 706.906L771.444 706.715L785.419 610.791L784.512 496.469C784.487 493.331 785.067 490.219 786.217 487.316C787.367 484.412 789.065 481.774 791.211 479.556C793.357 477.339 795.909 475.585 798.717 474.398C801.526 473.212 804.534 472.615 807.568 472.644L882.559 473.356C885.88 473.387 889.158 474.125 892.191 475.524C895.223 476.922 897.945 478.951 900.188 481.485C902.43 484.018 904.144 487.001 905.223 490.249C906.303 493.498 906.724 496.941 906.462 500.365L899.445 592.014L922.652 666.401L918.619 671.948C907.744 686.954 893.639 699.134 877.424 707.523C861.208 715.912 843.327 720.28 825.196 720.28V720.28Z" fill="#3F3D56"/>
<path d="M776.977 571.273L784.836 488.33L787.361 484.612C789.091 482.066 791.29 479.899 793.832 478.234C796.374 476.569 799.209 475.44 802.174 474.912C805.139 474.384 808.176 474.466 811.11 475.155C814.044 475.844 816.817 477.125 819.271 478.925L821.436 480.514L819.299 564.569L776.977 571.273Z" fill="#3F3D56"/>
<path d="M1098.97 976.498C1119.29 970.693 1127.96 1002.6 1107.69 1008.59C1087.38 1014.4 1078.71 982.487 1098.97 976.498Z" fill="#3F3D56"/>
<path d="M986.339 1017.57C1006.65 1011.76 1015.32 1043.67 995.059 1049.66C974.745 1055.47 966.076 1023.56 986.339 1017.57Z" fill="#3F3D56"/>
<path d="M940.753 681.013L941.067 680.922L993.393 827.87L1000.29 825.864L947.591 677.862C947.477 675.581 946.612 673.409 945.14 671.706C943.668 670.004 941.677 668.873 939.498 668.502C913.33 664.222 902.723 688.251 902.723 688.251L902.827 688.41L956.325 838.647L963.223 836.642L911.3 690.825C927.107 674.653 940.753 681.013 940.753 681.013Z" fill="#3F3D56"/>
<path d="M1000.72 1025.84C993.258 1025.77 986.008 1023.24 980.03 1018.61C974.051 1013.98 969.657 1007.5 967.487 1000.11C957.501 966.303 933.937 885.288 930.815 863.302C926.75 834.676 949.656 826.535 950.166 826.361C950.783 826.146 959.992 823.48 972.739 819.79C994.405 813.518 1027.15 804.039 1028.35 803.479C1033.42 801.654 1038.81 800.933 1044.16 801.361C1049.52 801.789 1054.73 803.356 1059.47 805.965C1064.36 808.625 1068.67 812.285 1072.15 816.723C1075.63 821.16 1078.2 826.283 1079.7 831.78L1113.41 955.815C1115.49 963.418 1114.9 971.538 1111.76 978.74C1108.62 985.942 1103.12 991.765 1096.23 995.181C1070.22 1008.1 1032.08 1025.34 1001.24 1025.83C1001.07 1025.83 1000.89 1025.84 1000.72 1025.84Z" fill="#F33187"/>
<path d="M935.189 675.93L918.246 573.556L916.355 539.006L888.964 548.287L912.066 682.339C911.133 684.947 910.912 687.771 911.427 690.501C911.941 693.231 913.171 695.763 914.983 697.818C916.795 699.873 919.118 701.374 921.698 702.156C924.279 702.938 927.017 702.97 929.615 702.251C932.212 701.531 934.568 700.086 936.425 698.075C938.282 696.063 939.569 693.562 940.144 690.845C940.72 688.128 940.562 685.299 939.688 682.669C938.814 680.039 937.258 677.707 935.189 675.93V675.93Z" fill="#FFB7B7"/>
<path d="M922.88 567.135L880.128 564.73L870.084 481.289L871.061 480.412C873.468 478.252 876.265 476.605 879.289 475.566C882.313 474.526 885.506 474.115 888.685 474.356C891.863 474.596 894.964 475.484 897.81 476.967C900.656 478.451 903.191 480.501 905.268 483L907.246 485.379L907.275 485.53L922.88 567.135Z" fill="#3F3D56"/>
<path d="M1096.98 974.72L1053.28 821.736L950.528 851.774L949.914 849.528L1054.81 818.862L1055.13 819.969L1099.14 974.059L1096.98 974.72Z" fill="#3F3D56"/>
<path d="M320.504 630.075L315.851 525.129L363.511 428.76L365.52 429.823L318.134 525.64L322.759 629.968L320.504 630.075Z" fill="#3F3D56"/>
<path d="M1196.5 1053.31H157.129C156.829 1053.31 156.542 1053.18 156.331 1052.97C156.119 1052.75 156 1052.45 156 1052.14C156 1051.83 156.119 1051.53 156.331 1051.32C156.542 1051.1 156.829 1050.97 157.129 1050.97H1196.5C1196.8 1050.97 1197.09 1051.1 1197.3 1051.32C1197.51 1051.53 1197.63 1051.83 1197.63 1052.14C1197.63 1052.45 1197.51 1052.75 1197.3 1052.97C1197.09 1053.18 1196.8 1053.31 1196.5 1053.31Z" fill="#CCCCCC"/>
<path d="M393.849 599.894L383.917 569.333L381.515 467.46L385.747 453.006C387.27 447.804 389.793 442.974 393.164 438.804C396.535 434.635 400.686 431.212 405.367 428.742C410.047 426.271 415.162 424.804 420.404 424.427C425.646 424.05 430.908 424.772 435.874 426.549C440.84 428.326 445.408 431.122 449.305 434.77C453.201 438.417 456.345 442.84 458.55 447.775C460.754 452.709 461.972 458.053 462.132 463.486C462.291 468.919 461.389 474.33 459.478 479.393L436.795 539.519L437.948 541.833L487.091 541.422L504.547 573.924L393.849 599.894Z" fill="#3F3D56"/>
<path d="M706.909 817.372L706.874 817.379L652.406 828.659L605.551 848.177C604.945 848.429 604.297 848.556 603.644 848.549C602.991 848.542 602.346 848.403 601.745 848.138C601.144 847.873 600.599 847.489 600.142 847.007C599.685 846.524 599.324 845.953 599.08 845.327C599.023 845.18 598.972 845.03 598.928 844.878L564.699 726.319C564.339 725.09 564.438 723.767 564.976 722.611C565.515 721.455 566.453 720.55 567.606 720.075L615.318 700.2L615.353 700.193L669.821 688.913L716.676 669.395C717.9 668.885 719.269 668.899 720.482 669.434C721.695 669.968 722.654 670.98 723.147 672.245C723.204 672.392 723.255 672.542 723.299 672.695L757.528 791.253C757.888 792.481 757.789 793.805 757.25 794.961C756.712 796.117 755.773 797.022 754.621 797.497L706.909 817.372Z" fill="#E5E5E5"/>
<path d="M648.461 737.735C635.97 733.175 623.06 729.181 610.092 725.864L609.442 725.697L616.026 748.502L649.57 738.139L648.461 737.735ZM616.54 747.517L610.558 726.8C622.901 729.978 635.184 733.769 647.097 738.077L616.54 747.517ZM713.911 768.562C708.097 765.161 702.199 761.904 696.218 758.792C694.568 757.933 692.914 757.086 691.255 756.251C681.126 751.154 670.843 746.508 660.405 742.312L660.283 742.263L617.996 755.326L629.544 795.324L714.694 769.02L713.911 768.562ZM630.058 794.34L618.948 755.858L660.251 743.099C670.317 747.148 680.267 751.633 690.102 756.554C691.81 757.407 693.511 758.274 695.207 759.154C701.13 762.221 706.978 765.435 712.751 768.794L630.058 794.34ZM713.911 768.562C708.097 765.161 702.199 761.904 696.218 758.792C694.568 757.933 692.914 757.086 691.255 756.251C681.126 751.154 670.843 746.508 660.405 742.312L660.283 742.263L617.996 755.326L629.544 795.324L714.694 769.02L713.911 768.562ZM630.058 794.34L618.948 755.858L660.251 743.099C670.317 747.148 680.267 751.633 690.102 756.554C691.81 757.407 693.511 758.274 695.207 759.154C701.13 762.221 706.978 765.435 712.751 768.794L630.058 794.34ZM648.461 737.735C635.97 733.175 623.06 729.181 610.092 725.864L609.442 725.697L616.026 748.502L649.57 738.139L648.461 737.735ZM616.54 747.517L610.558 726.8C622.901 729.978 635.184 733.769 647.097 738.077L616.54 747.517ZM648.461 737.735C635.97 733.175 623.06 729.181 610.092 725.864L609.442 725.697L616.026 748.502L649.57 738.139L648.461 737.735ZM616.54 747.517L610.558 726.8C622.901 729.978 635.184 733.769 647.097 738.077L616.54 747.517ZM713.911 768.562C708.097 765.161 702.199 761.904 696.218 758.792C694.568 757.933 692.914 757.086 691.255 756.251C681.126 751.154 670.843 746.508 660.405 742.312L660.283 742.263L617.996 755.326L629.544 795.324L714.694 769.02L713.911 768.562ZM630.058 794.34L618.948 755.858L660.251 743.099C670.317 747.148 680.267 751.633 690.102 756.554C691.81 757.407 693.511 758.274 695.207 759.154C701.13 762.221 706.978 765.435 712.751 768.794L630.058 794.34ZM595.232 813.357L595.451 814.115L624.403 805.171L627.577 816.166L598.625 825.11L598.844 825.868L628.529 816.698L624.917 804.187L595.232 813.357ZM637.097 821.484L639.315 829.167L640.028 828.871L638.049 822.016L750.937 787.143L750.718 786.384L637.097 821.484ZM745.355 767.807L745.136 767.049L631.514 802.149L635.126 814.66L748.748 779.56L748.529 778.802L635.64 813.675L632.466 802.68L745.355 767.807ZM660.971 733.791C643.668 726.914 625.894 721.38 607.797 717.234L605.58 709.557L604.867 709.853L607.101 717.59L607.851 718.058C625.878 722.199 643.583 727.721 660.819 734.578L660.941 734.627L729.647 713.402L729.428 712.644L660.971 733.791ZM608.476 750.008L579.525 758.952L579.744 759.71L609.428 750.54L598.453 712.524L597.74 712.821L608.476 750.008ZM731.617 720.226L671.217 738.885L672.2 739.312C681.464 743.345 690.704 747.802 699.92 752.685C701.23 753.379 702.539 754.082 703.846 754.794C710.352 758.328 716.807 762.059 723.212 765.986L723.923 766.169L743.165 760.225L742.946 759.466L723.75 765.396C717.413 761.507 711.017 757.804 704.563 754.29C703.272 753.586 701.979 752.89 700.685 752.203C691.664 747.41 682.595 743.013 673.477 739.013L731.836 720.985L731.617 720.226ZM600.815 832.692L601.034 833.451L629.985 824.507L632.187 832.135L632.9 831.839L630.499 823.522L600.815 832.692ZM581.714 766.534L581.933 767.293L610.884 758.349L621.995 796.831L593.043 805.774L593.262 806.533L622.947 797.362L611.399 757.364L581.714 766.534ZM648.461 737.735C635.97 733.175 623.06 729.181 610.092 725.864L609.442 725.697L616.026 748.502L649.57 738.139L648.461 737.735ZM616.54 747.517L610.558 726.8C622.901 729.978 635.184 733.769 647.097 738.077L616.54 747.517ZM713.911 768.562C708.097 765.161 702.199 761.904 696.218 758.792C694.568 757.933 692.914 757.086 691.255 756.251C681.126 751.154 670.843 746.508 660.405 742.312L660.283 742.263L617.996 755.326L629.544 795.324L714.694 769.02L713.911 768.562ZM630.058 794.34L618.948 755.858L660.251 743.099C670.317 747.148 680.267 751.633 690.102 756.554C691.81 757.407 693.511 758.274 695.207 759.154C701.13 762.221 706.978 765.435 712.751 768.794L630.058 794.34ZM648.461 737.735C635.97 733.175 623.06 729.181 610.092 725.864L609.442 725.697L616.026 748.502L649.57 738.139L648.461 737.735ZM616.54 747.517L610.558 726.8C622.901 729.978 635.184 733.769 647.097 738.077L616.54 747.517ZM713.911 768.562C708.097 765.161 702.199 761.904 696.218 758.792C694.568 757.933 692.914 757.086 691.255 756.251C681.126 751.154 670.843 746.508 660.405 742.312L660.283 742.263L617.996 755.326L629.544 795.324L714.694 769.02L713.911 768.562ZM630.058 794.34L618.948 755.858L660.251 743.099C670.317 747.148 680.267 751.633 690.102 756.554C691.81 757.407 693.511 758.274 695.207 759.154C701.13 762.221 706.978 765.435 712.751 768.794L630.058 794.34Z" fill="white"/>
<path d="M658.186 741.306C660.958 750.908 650.326 777.49 650.326 777.49C650.326 777.49 627.343 761.292 624.571 751.69C623.24 747.079 623.734 742.11 625.945 737.876C628.155 733.642 631.902 730.489 636.359 729.112C640.817 727.735 645.621 728.246 649.714 730.533C653.807 732.82 656.855 736.695 658.186 741.306H658.186Z" fill="#F33187"/>
<path d="M648.844 743.369C649.298 744.94 649.291 746.616 648.824 748.184C648.357 749.752 647.451 751.141 646.221 752.177C644.991 753.212 643.491 753.846 641.912 754C640.333 754.154 638.746 753.82 637.35 753.04C635.955 752.261 634.814 751.071 634.072 749.621C633.331 748.17 633.022 746.525 633.184 744.894C633.346 743.262 633.973 741.716 634.984 740.452C635.995 739.189 637.346 738.264 638.866 737.794C639.875 737.482 640.934 737.379 641.981 737.49C643.029 737.601 644.045 737.925 644.972 738.442C645.898 738.96 646.717 739.662 647.382 740.507C648.046 741.352 648.543 742.325 648.844 743.369Z" fill="white"/>
<path d="M652.596 790.243C655.207 790.243 657.324 788.053 657.324 785.351C657.324 782.65 655.207 780.46 652.596 780.46C649.985 780.46 647.868 782.65 647.868 785.351C647.868 788.053 649.985 790.243 652.596 790.243Z" fill="#F33187"/>
<path d="M704.191 721.042L671.33 731.194C671.289 731.207 671.246 731.216 671.204 731.222L678.706 698.573C678.751 698.37 678.847 698.184 678.984 698.032C679.122 697.88 679.296 697.769 679.488 697.709C679.681 697.65 679.885 697.644 680.081 697.693C680.276 697.742 680.455 697.844 680.6 697.988L696.426 713.453L697.184 714.193L704.191 721.042Z" fill="white"/>
<path opacity="0.2" d="M704.191 721.042L692.971 724.508L696.09 714.532L696.314 713.813L696.427 713.453L697.184 714.193L704.191 721.042Z" fill="black"/>
<path d="M722.488 715.39L694.066 724.17L697.184 714.193L697.408 713.475L701.472 700.473C701.551 700.269 701.671 700.085 701.824 699.932C701.977 699.779 702.159 699.661 702.358 699.585C702.558 699.51 702.771 699.479 702.983 699.494C703.195 699.509 703.401 699.571 703.589 699.674C703.638 699.704 703.686 699.738 703.731 699.775L722.488 715.39Z" fill="white"/>
</g>
<defs>
<clipPath id="clip0_7_58">
<rect width="1041.63" height="744.308" fill="white" transform="translate(156 309)"/>
</clipPath>
</defs>
</svg>
