<svg width="807" height="694" viewBox="0 0 807 694" fill="none" xmlns="http://www.w3.org/2000/svg">
<path fill-rule="evenodd" clip-rule="evenodd" d="M420.472 0.611341C505.715 2.07348 603.639 -3.01589 663.561 47.5407C722.303 97.101 688.296 180.651 712.808 247.255C736.669 312.09 822.75 364.347 804.474 430.431C786.174 496.596 688.659 518.805 625.77 561.962C557.376 608.898 509.018 696.323 420.472 693.953C331.604 691.573 295.229 596.174 224.538 551.22C156.416 507.899 51.0796 501.044 15.1581 436.203C-21.4812 370.066 16.4213 293.595 43.4347 224.315C70.4459 155.041 98.8101 81.3157 170.004 39.0749C240.902 -2.98999 333.467 -0.881033 420.472 0.611341Z" fill="#9D29F8"/>
<path d="M316.505 119.766C317.254 121.942 317.15 124.337 316.216 126.434C315.281 128.532 313.592 130.163 311.511 130.977C311.051 131.156 310.576 131.292 310.093 131.383L305.283 162L294 151.17L300.297 123.756C300.064 121.446 300.715 119.134 302.109 117.319C303.503 115.503 305.528 114.331 307.746 114.056C309.613 113.834 311.497 114.278 313.088 115.315C314.68 116.353 315.885 117.922 316.505 119.766L316.505 119.766Z" fill="#FFB6B6"/>
<path d="M236 188.591C236 188.591 244.516 176.605 275.42 176.933L292.961 170.144L296.969 131L311 134.559L308.996 182.955L278.93 201.459L239.51 210L236 188.591Z" fill="#E6E7E8"/>
<path d="M188 484.319L196.014 488L213 456.433L201.173 451L188 484.319Z" fill="#FFB6B6"/>
<path d="M255.002 492L263.81 491.999L268 456L255 456.001L255.002 492Z" fill="#FFB6B6"/>
<path d="M254 502L281 501.999V501.648C281 498.783 279.893 496.036 277.922 494.01C275.951 491.984 273.278 490.846 270.491 490.846H270.49L265.559 487L256.357 490.847L254 490.847L254 502Z" fill="#2F2E41"/>
<path d="M183 490.678L208.018 502L208.153 501.664C209.253 498.921 209.283 495.827 208.235 493.061C207.187 490.295 205.148 488.085 202.565 486.916L202.565 486.915L199.472 481.165L189.468 480.988L187.285 480L183 490.678Z" fill="#2F2E41"/>
<path d="M263.355 278.01L276.853 365.126L273.18 378.108L278 387.302L270.921 468.047L273.795 474.752L265.766 480H249.43L248.563 406.901L244.527 396.168V390.253L236.313 345.679L234.8 396.667L232.41 407.416L234.418 415.07L231.795 420.431L209.319 471.586H191L192.417 460.018C189.135 458.257 197.344 453.109 198.133 449.3L195.436 442.868L198.133 430.717L200.606 406.974L197.998 356.857L199.226 289.369L220.655 272L263.355 278.01Z" fill="#2F2E41"/>
<path d="M231.5 164C241.717 164 250 155.27 250 144.5C250 133.73 241.717 125 231.5 125C221.283 125 213 133.73 213 144.5C213 155.27 221.283 164 231.5 164Z" fill="#FFB6B6"/>
<path d="M200.483 293C200.451 293 200.418 292.995 200.387 292.986C200.049 292.885 199.782 292.805 201.003 281.493L202.32 272.552L201.034 264.657L198.87 262.338L202.348 258.612L200.216 241.712L194.423 208.924C193.427 203.266 194.201 197.414 196.625 192.276C199.049 187.138 202.987 183 207.829 180.504L219.235 169.168L240.222 169L246.937 178.353L264.701 184.819L261.756 250.114L263.822 255.28L263.645 255.451C263.631 255.465 262.255 256.798 261.637 257.532C261.337 257.988 261.899 261.391 262.593 264.281L263.483 271.415L261.24 273.132L264.156 276.822L265 283.605L264.524 283.478C263.987 283.335 210.799 269.472 200.851 292.702C200.825 292.786 200.777 292.86 200.711 292.913C200.645 292.966 200.566 292.997 200.483 293V293Z" fill="#E6E7E8"/>
<path d="M212.138 125.298C212.996 124.419 214.11 123.896 215.287 123.819C216.454 123.86 217.639 125.006 217.397 126.248C219.541 122.121 222.955 118.948 227.039 117.284C231.123 115.62 235.615 115.572 239.728 117.149C242.63 118.261 245.476 120.487 246.143 123.752C246.208 124.609 246.443 125.441 246.832 126.189C247.17 126.59 247.608 126.874 248.092 127.007C248.576 127.141 249.086 127.117 249.558 126.94L249.586 126.93C249.748 126.871 249.922 126.865 250.087 126.914C250.252 126.963 250.399 127.064 250.51 127.205C250.621 127.346 250.691 127.52 250.71 127.704C250.729 127.889 250.697 128.075 250.617 128.239L249.796 129.903C250.831 130.154 251.907 130.129 252.931 129.831C253.101 129.782 253.281 129.792 253.446 129.859C253.611 129.926 253.753 130.047 253.852 130.205C253.951 130.363 254.003 130.55 254 130.741C253.997 130.932 253.94 131.118 253.837 131.272C252.472 133.301 250.69 134.956 248.633 136.105C246.577 137.253 244.301 137.865 241.989 137.89C238.708 137.868 235.393 136.639 232.2 137.459C230.965 137.776 229.81 138.39 228.822 139.255C227.833 140.12 227.036 141.215 226.487 142.459C225.939 143.703 225.653 145.064 225.652 146.443C225.651 147.823 225.934 149.185 226.481 150.43C225.5 149.264 223.604 149.54 222.6 150.683C222.138 151.295 221.797 152.003 221.597 152.764C221.397 153.526 221.343 154.323 221.438 155.108C221.706 157.512 222.363 159.845 223.378 162C219.498 161.87 215.749 160.45 212.635 157.93C209.522 155.411 207.196 151.914 205.97 147.912C204.744 143.91 204.679 139.595 205.782 135.551C206.885 131.507 209.104 127.928 212.138 125.298V125.298Z" fill="#2F2E41"/>
<path d="M321.84 490.672L316.777 481.878L315.766 486.903C315.589 487.783 315.411 488.677 315.247 489.565C313.809 488.237 312.279 487.009 310.782 485.831C306.186 482.225 301.592 478.615 297 475L298.438 484.014C299.324 489.565 300.25 495.229 302.443 500.304C302.686 500.878 302.949 501.446 303.231 502H324.598C324.769 501.486 324.888 500.952 324.952 500.41C324.958 500.375 324.96 500.339 324.959 500.304C325.294 496.861 323.534 493.617 321.84 490.672Z" fill="#F0F0F0"/>
<path d="M142.273 490.672L147.516 481.878L148.564 486.903C148.747 487.783 148.931 488.677 149.101 489.565C150.59 488.237 152.175 487.009 153.725 485.831C158.486 482.225 163.244 478.615 168 475L166.511 484.014C165.593 489.565 164.634 495.229 162.362 500.304C162.111 500.878 161.839 501.446 161.546 502H139.417C139.239 501.486 139.116 500.952 139.049 500.41C139.044 500.375 139.042 500.339 139.043 500.304C138.696 496.861 140.518 493.617 142.273 490.672Z" fill="#F0F0F0"/>
<path d="M372.199 503H108.803C108.698 503 108.593 502.975 108.496 502.925C108.398 502.875 108.31 502.801 108.235 502.708C108.161 502.615 108.102 502.505 108.061 502.383C108.021 502.262 108 502.132 108 502C108 501.868 108.021 501.738 108.061 501.617C108.102 501.495 108.161 501.385 108.235 501.292C108.31 501.199 108.398 501.125 108.496 501.075C108.593 501.025 108.698 501 108.803 501H372.199C372.412 501 372.615 501.105 372.766 501.293C372.916 501.48 373 501.735 373 502C373 502.265 372.916 502.52 372.766 502.707C372.615 502.895 372.412 503 372.199 503V503Z" fill="#CACACA"/>
<path d="M481.01 142H402.071C401.256 141.998 400.475 141.629 399.899 140.973C399.323 140.317 399 139.427 399 138.5C399 137.573 399.323 136.683 399.899 136.027C400.475 135.371 401.256 135.002 402.071 135H481.01C484.977 134.937 485.016 142.063 481.01 142Z" fill="#E4E4E4"/>
<path d="M588.984 159H402.098C401.276 158.998 400.488 158.629 399.907 157.973C399.326 157.317 399 156.427 399 155.5C399 154.573 399.326 153.683 399.907 153.027C400.488 152.371 401.276 152.002 402.098 152H588.984C592.985 151.937 593.025 159.063 588.984 159Z" fill="#E4E4E4"/>
<path d="M654 168C665.046 168 674 158.598 674 147C674 135.402 665.046 126 654 126C642.954 126 634 135.402 634 147C634 158.598 642.954 168 654 168Z" fill="#6C63FF"/>
<path d="M651.38 158C651.048 158 650.721 157.915 650.424 157.752C650.127 157.588 649.869 157.351 649.67 157.059L644.428 149.371C644.26 149.124 644.137 148.843 644.067 148.544C643.997 148.245 643.982 147.934 644.021 147.628C644.061 147.322 644.155 147.028 644.298 146.762C644.441 146.496 644.63 146.264 644.855 146.079C645.08 145.893 645.335 145.758 645.607 145.682C645.879 145.605 646.162 145.588 646.44 145.632C646.718 145.676 646.986 145.78 647.227 145.937C647.469 146.095 647.68 146.303 647.848 146.55L651.277 151.58L660.085 137.047C660.24 136.79 660.44 136.569 660.674 136.398C660.907 136.226 661.168 136.106 661.444 136.046C661.719 135.985 662.002 135.985 662.278 136.045C662.553 136.105 662.815 136.224 663.048 136.395C663.282 136.566 663.482 136.786 663.639 137.043C663.795 137.299 663.903 137.587 663.959 137.89C664.014 138.193 664.014 138.504 663.959 138.807C663.905 139.11 663.797 139.398 663.641 139.655L653.158 156.953C652.968 157.266 652.713 157.524 652.414 157.706C652.115 157.888 651.781 157.989 651.439 157.999C651.419 158 651.399 158 651.38 158Z" fill="white"/>
<path d="M362.048 127H311.952C311.169 127.001 310.419 127.337 309.866 127.933C309.312 128.53 309.001 129.339 309 130.183V163.817C309.001 164.661 309.312 165.47 309.866 166.067C310.419 166.663 311.169 166.999 311.952 167H362.048C362.831 166.999 363.581 166.663 364.134 166.067C364.688 165.47 364.999 164.661 365 163.817V130.183C364.999 129.339 364.688 128.53 364.134 127.933C363.581 127.337 362.831 127.001 362.048 127V127ZM363.017 151.159C363.005 154.583 361.749 157.866 359.518 160.303C357.288 162.74 354.26 164.137 351.085 164.195C346.002 164.266 353.898 164.294 347.767 164.294C333.748 164.294 319.131 164.149 313.677 164.056C312.959 164.04 312.276 163.722 311.773 163.17C311.269 162.618 310.986 161.876 310.983 161.102V130.186C310.984 129.909 311.086 129.643 311.267 129.447C311.449 129.251 311.695 129.14 311.952 129.139H362.046C362.303 129.139 362.549 129.249 362.731 129.445C362.913 129.641 363.016 129.906 363.017 130.183V151.159Z" fill="#CACACA"/>
<path d="M355.311 149H317.468C317.133 148.999 316.806 148.884 316.533 148.669C316.259 148.453 316.052 148.149 315.939 147.798L310.094 129.518C310.007 129.245 309.98 128.952 310.015 128.665C310.05 128.378 310.146 128.105 310.296 127.868C310.446 127.631 310.644 127.438 310.875 127.304C311.105 127.171 311.361 127.101 311.621 127.1L362.375 127H362.377C362.645 127 362.91 127.074 363.146 127.216C363.383 127.358 363.584 127.563 363.732 127.813C363.88 128.063 363.97 128.35 363.994 128.649C364.017 128.947 363.975 129.247 363.869 129.522L363.78 129.48L363.869 129.522L356.803 147.903C356.678 148.229 356.47 148.507 356.205 148.701C355.939 148.896 355.629 149 355.311 149Z" fill="#CACACA"/>
<path d="M336.5 153C338.985 153 341 150.985 341 148.5C341 146.015 338.985 144 336.5 144C334.015 144 332 146.015 332 148.5C332 150.985 334.015 153 336.5 153Z" fill="#3F3D56"/>
<path d="M481.01 236H402.071C401.256 235.998 400.475 235.629 399.899 234.973C399.323 234.317 399 233.427 399 232.5C399 231.573 399.323 230.683 399.899 230.027C400.475 229.371 401.256 229.002 402.071 229H481.01C484.977 228.937 485.016 236.063 481.01 236Z" fill="#E4E4E4"/>
<path d="M588.985 253H402.102C401.279 253 400.49 252.631 399.909 251.975C399.327 251.318 399 250.428 399 249.5C399 248.572 399.327 247.682 399.909 247.025C400.49 246.369 401.279 246 402.102 246H588.985C592.985 245.937 593.025 253.063 588.985 253Z" fill="#E4E4E4"/>
<path d="M654 262C665.046 262 674 252.598 674 241C674 229.402 665.046 220 654 220C642.954 220 634 229.402 634 241C634 252.598 642.954 262 654 262Z" fill="#6C63FF"/>
<path d="M651.379 252C651.047 252 650.72 251.915 650.423 251.752C650.127 251.589 649.869 251.352 649.67 251.06L644.428 243.372C644.26 243.125 644.137 242.844 644.067 242.545C643.997 242.246 643.982 241.935 644.021 241.629C644.061 241.323 644.155 241.029 644.298 240.763C644.441 240.497 644.63 240.265 644.855 240.08C645.079 239.894 645.335 239.76 645.607 239.683C645.879 239.607 646.162 239.59 646.44 239.633C646.718 239.677 646.985 239.781 647.227 239.938C647.468 240.096 647.679 240.304 647.848 240.552L651.277 245.58L660.083 231.049C660.239 230.792 660.439 230.571 660.672 230.399C660.906 230.227 661.167 230.107 661.443 230.046C661.718 229.985 662.002 229.985 662.277 230.045C662.553 230.104 662.815 230.223 663.048 230.395C663.282 230.566 663.483 230.787 663.639 231.043C663.795 231.3 663.904 231.588 663.959 231.891C664.014 232.194 664.014 232.506 663.959 232.809C663.904 233.112 663.796 233.4 663.64 233.657L653.157 250.953C652.968 251.266 652.713 251.524 652.414 251.706C652.115 251.888 651.78 251.989 651.439 251.999C651.419 252 651.399 252 651.379 252Z" fill="white"/>
<path d="M362.048 221H311.952C311.169 221.001 310.419 221.337 309.866 221.933C309.312 222.53 309.001 223.339 309 224.183V257.817C309.001 258.661 309.312 259.47 309.866 260.067C310.419 260.663 311.169 260.999 311.952 261H362.048C362.831 260.999 363.581 260.663 364.134 260.067C364.688 259.47 364.999 258.661 365 257.817V224.183C364.999 223.339 364.688 222.53 364.134 221.933C363.581 221.337 362.831 221.001 362.048 221V221ZM363.017 245.159C363.005 248.583 361.749 251.866 359.518 254.303C357.288 256.74 354.26 258.137 351.085 258.195C346.002 258.266 353.898 258.294 347.767 258.294C333.748 258.294 319.131 258.149 313.677 258.056C312.959 258.04 312.276 257.722 311.773 257.17C311.269 256.618 310.986 255.876 310.983 255.102V224.186C310.984 223.909 311.086 223.643 311.267 223.447C311.449 223.251 311.695 223.14 311.952 223.139H362.046C362.303 223.139 362.549 223.249 362.731 223.445C362.913 223.641 363.016 223.906 363.017 224.183V245.159Z" fill="#CACACA"/>
<path d="M355.311 243H317.468C317.133 242.999 316.806 242.884 316.533 242.669C316.259 242.454 316.052 242.149 315.939 241.798L310.094 223.518C310.007 223.245 309.98 222.952 310.015 222.665C310.05 222.378 310.146 222.105 310.296 221.868C310.446 221.631 310.644 221.438 310.875 221.304C311.105 221.171 311.361 221.101 311.621 221.1L362.375 221H362.377C362.646 221 362.91 221.074 363.146 221.216C363.383 221.358 363.584 221.563 363.732 221.813C363.88 222.063 363.97 222.35 363.994 222.649C364.017 222.947 363.975 223.247 363.869 223.522L363.78 223.48L363.869 223.522L356.803 241.903C356.678 242.229 356.47 242.507 356.205 242.701C355.939 242.896 355.629 243 355.311 243Z" fill="#CACACA"/>
<path d="M336.5 247C338.985 247 341 244.985 341 242.5C341 240.015 338.985 238 336.5 238C334.015 238 332 240.015 332 242.5C332 244.985 334.015 247 336.5 247Z" fill="#3F3D56"/>
<path d="M481.01 330H402.071C401.256 329.998 400.475 329.629 399.899 328.973C399.323 328.317 399 327.427 399 326.5C399 325.573 399.323 324.683 399.899 324.027C400.475 323.371 401.256 323.002 402.071 323H481.01C484.977 322.937 485.016 330.063 481.01 330Z" fill="#E4E4E4"/>
<path d="M588.985 347H402.102C401.279 347 400.49 346.631 399.909 345.975C399.327 345.318 399 344.428 399 343.5C399 342.572 399.327 341.682 399.909 341.025C400.49 340.369 401.279 340 402.102 340H588.985C592.985 339.937 593.025 347.063 588.985 347Z" fill="#E4E4E4"/>
<path d="M654 356C665.046 356 674 346.598 674 335C674 323.402 665.046 314 654 314C642.954 314 634 323.402 634 335C634 346.598 642.954 356 654 356Z" fill="#6C63FF"/>
<path d="M651.378 346C651.047 346 650.719 345.915 650.423 345.752C650.126 345.589 649.868 345.352 649.669 345.06L644.427 337.372C644.259 337.125 644.136 336.844 644.067 336.545C643.997 336.246 643.982 335.935 644.021 335.629C644.061 335.324 644.155 335.03 644.298 334.764C644.441 334.498 644.63 334.266 644.855 334.081C645.079 333.896 645.335 333.761 645.607 333.685C645.879 333.608 646.162 333.591 646.439 333.635C646.717 333.678 646.984 333.782 647.226 333.939C647.467 334.096 647.678 334.305 647.847 334.552L651.276 339.58L660.083 325.049C660.239 324.792 660.439 324.571 660.672 324.399C660.905 324.227 661.167 324.107 661.443 324.046C661.718 323.985 662.001 323.985 662.277 324.045C662.553 324.104 662.815 324.223 663.048 324.395C663.282 324.566 663.483 324.787 663.639 325.043C663.795 325.3 663.904 325.588 663.959 325.891C664.014 326.194 664.014 326.506 663.959 326.809C663.904 327.112 663.796 327.4 663.64 327.657L653.157 344.953C652.967 345.266 652.712 345.524 652.413 345.706C652.114 345.888 651.78 345.989 651.438 345.999C651.418 346 651.398 346 651.378 346Z" fill="white"/>
<path d="M362.048 315H311.952C311.169 315.001 310.419 315.337 309.866 315.933C309.312 316.53 309.001 317.339 309 318.183V351.817C309.001 352.661 309.312 353.47 309.866 354.067C310.419 354.663 311.169 354.999 311.952 355H362.048C362.831 354.999 363.581 354.663 364.134 354.067C364.688 353.47 364.999 352.661 365 351.817V318.183C364.999 317.339 364.688 316.53 364.134 315.933C363.581 315.337 362.831 315.001 362.048 315V315ZM363.017 339.159C363.005 342.583 361.749 345.866 359.518 348.303C357.288 350.74 354.26 352.137 351.085 352.195C346.002 352.266 353.898 352.294 347.767 352.294C333.748 352.294 319.131 352.149 313.677 352.056C312.959 352.04 312.276 351.722 311.773 351.17C311.269 350.618 310.986 349.876 310.983 349.102V318.186C310.984 317.909 311.086 317.643 311.267 317.447C311.449 317.251 311.695 317.14 311.952 317.139H362.046C362.303 317.139 362.549 317.249 362.731 317.445C362.913 317.641 363.016 317.906 363.017 318.183V339.159Z" fill="#CACACA"/>
<path d="M355.311 337H317.468C317.133 336.999 316.806 336.884 316.533 336.669C316.259 336.454 316.052 336.149 315.939 335.798L310.094 317.518C310.007 317.245 309.98 316.952 310.015 316.665C310.05 316.378 310.146 316.105 310.296 315.868C310.446 315.631 310.644 315.438 310.875 315.304C311.105 315.171 311.361 315.101 311.621 315.1L362.375 315H362.377C362.646 315 362.91 315.074 363.146 315.216C363.383 315.358 363.584 315.563 363.732 315.813C363.88 316.063 363.97 316.35 363.994 316.649C364.017 316.947 363.975 317.247 363.869 317.522L363.78 317.48L363.869 317.522L356.803 335.903C356.678 336.229 356.47 336.507 356.205 336.702C355.939 336.896 355.629 337 355.311 337V337Z" fill="#CACACA"/>
<path d="M336.5 341C338.985 341 341 338.985 341 336.5C341 334.015 338.985 332 336.5 332C334.015 332 332 334.015 332 336.5C332 338.985 334.015 341 336.5 341Z" fill="#3F3D56"/>
<path d="M252.993 294.999C250.824 295.035 248.729 294.141 247.16 292.51C245.59 290.879 244.672 288.641 244.603 286.278C244.589 285.756 244.617 285.233 244.688 284.717L219 269.787L232.168 262L254.543 277.372C256.669 277.898 258.518 279.315 259.693 281.316C260.867 283.318 261.272 285.742 260.819 288.066C260.43 290.017 259.443 291.767 258.021 293.027C256.599 294.287 254.826 294.982 252.993 294.999L252.993 294.999Z" fill="#FFB6B6"/>
<path d="M240.916 284L197.847 266.223L191 229.728L193.543 208.745C193.888 205.898 194.769 203.153 196.134 200.673C197.5 198.192 199.321 196.026 201.492 194.302C203.662 192.579 206.138 191.333 208.771 190.638C211.405 189.944 214.144 189.814 216.826 190.258L216.97 190.282L217.052 190.41C217.381 190.924 224.978 203.336 214.754 234.132L215.132 253.704L249 270.42L240.916 284Z" fill="#E6E7E8"/>
</svg>
