<svg width="1229" height="944" viewBox="0 0 1229 944" fill="none" xmlns="http://www.w3.org/2000/svg">
<path d="M663.004 3.30186C734.465 22.0149 762.55 95.2646 813.07 141.76C849.596 175.376 872.113 223.794 921.92 241.59C1009.12 272.747 1132.29 224.169 1199.95 279.995C1254.06 324.638 1219.99 408.583 1198.44 469.742C1178.02 527.73 1091.04 559.833 1080.3 619.64C1066.27 697.854 1184.27 786.627 1129.98 851.177C1079.03 911.758 956.366 862.172 868.85 871.056C805.704 877.467 744.425 885.878 682.119 896.641C615.084 908.221 546.05 962.531 484.43 937.465C416.676 909.904 427.071 819.268 376.521 772.329C337.737 736.317 278.344 723.55 228.167 699.51C152.361 663.192 20.1387 664.611 1.80227 592.802C-16.5021 521.119 109.563 479.629 156.212 417.721C187.156 376.653 222.228 335.734 231.663 287.748C246.536 212.111 168.48 118.751 226.6 59.7432C277.863 7.69724 385.82 60.9241 465.182 50.6601C533.522 41.8214 596.981 -13.9876 663.004 3.30186Z" fill="#63B5C0"/>
<path d="M431.925 758.321L445.207 761.918L465.406 712.395L445.801 707.085L431.925 758.321Z" fill="#FFB6B6"/>
<path d="M427.703 772.051L468.551 783.115L468.691 782.598C469.833 778.381 469.253 773.884 467.079 770.095C464.905 766.305 461.315 763.535 457.099 762.393L457.098 762.392L451.17 754.711L435.715 756.601L432.149 755.635L427.703 772.051Z" fill="#2F2E41"/>
<path d="M523.64 769.847L537.401 769.846L543.948 716.764L523.637 716.765L523.64 769.847Z" fill="#FFB6B6"/>
<path d="M523.155 784.202L565.474 784.201V783.666C565.474 779.297 563.739 775.108 560.65 772.019C557.56 768.93 553.371 767.194 549.002 767.194H549.001L541.271 761.329L526.849 767.195L523.154 767.195L523.155 784.202Z" fill="#2F2E41"/>
<path d="M529.516 463.763L547.984 725.341L518.243 727.976L476.751 534.116L481.349 646.282L464.881 734.502L439.707 722.329L440.125 630.47L407.074 482.028L415.871 463.763H529.516Z" fill="#2F2E41"/>
<path d="M411.292 496.309L411.107 496.05C401.251 482.251 416.075 449.092 418.311 444.285C415.656 443.423 413.382 441.668 411.876 439.318C410.369 436.968 409.724 434.168 410.051 431.396L411.014 423.203L412.019 415.167L404.822 407.969L404.801 407.79L400.659 371.548L394.637 347.476C392.368 338.376 392.561 328.836 395.197 319.835C397.833 310.834 402.817 302.697 409.637 296.259L423.558 294.049L440.476 277.748H467.758L477.112 286.686C494.574 289.748 497.574 288.748 512.574 306.748L505.758 362.711L504.058 370.41L504.063 380.852L508.386 385.656C509.943 387.386 511.075 389.457 511.69 391.702C512.306 393.947 512.389 396.305 511.932 398.587L511.364 401.43C515.822 403.34 520.076 437.295 521.093 442.038L522.611 449.123C523.91 450.837 532.484 462.269 532.484 465.394C532.484 465.863 532.137 466.317 531.394 466.82C525.551 470.776 502.257 498.842 487.963 493.123C472.738 487.035 412.216 496.167 411.606 496.26L411.292 496.309Z" fill="#3F3D56"/>
<path d="M407.626 431.234C407.626 431.234 414.632 391.639 407.574 376.749L379.574 378.749L383.836 435.235L408.313 497.953C407.939 499.885 408.083 501.882 408.731 503.74C409.379 505.599 410.506 507.253 412 508.534C413.493 509.816 415.3 510.68 417.235 511.038C419.17 511.396 421.166 511.236 423.019 510.573C424.872 509.91 426.517 508.769 427.787 507.266C429.056 505.762 429.905 503.949 430.248 502.011C430.59 500.073 430.414 498.079 429.737 496.231C429.059 494.383 427.905 492.747 426.391 491.49L407.626 431.234Z" fill="#FFB6B6"/>
<path d="M379.574 355.749L381.307 336.877C381.959 329.775 384.009 322.871 387.339 316.564C390.669 310.257 395.213 304.67 400.71 300.125C404.125 297.323 408.257 295.531 412.637 294.953C417.017 294.374 421.472 295.033 425.497 296.853V296.853C430.938 299.358 435.224 303.835 437.49 309.38C439.756 314.924 439.831 321.122 437.702 326.72C431.231 343.692 433.567 361.641 420.949 363.829L422.32 370.352L409.912 410.842L374.574 406.749L379.574 355.749Z" fill="#3F3D56"/>
<path d="M518.354 484.934C517.116 486.464 516.304 488.294 516.002 490.239C515.7 492.183 515.918 494.174 516.633 496.007C517.349 497.84 518.537 499.452 520.076 500.678C521.616 501.903 523.453 502.7 525.4 502.987C527.347 503.273 529.335 503.039 531.163 502.309C532.99 501.579 534.592 500.378 535.806 498.828C537.019 497.279 537.801 495.436 538.072 493.487C538.343 491.537 538.093 489.551 537.348 487.729L549.061 421.431L542.171 365.205L514.322 368.73C510.319 384.715 524.947 422.169 524.947 422.169L518.354 484.934Z" fill="#FFB6B6"/>
<path d="M552.561 391.682L518.71 402.621L505.677 382.289L505.743 375.624C492.94 375.951 484.647 340.95 474.975 325.575C471.79 320.502 470.65 314.41 471.785 308.529C472.92 302.648 476.247 297.418 481.091 293.896V293.896C484.682 291.322 488.921 289.803 493.33 289.512C497.738 289.221 502.14 290.168 506.039 292.247V292.247C512.32 295.627 517.87 300.215 522.371 305.748C526.873 311.28 530.236 317.648 532.267 324.485L537.664 342.651L552.561 391.682Z" fill="#3F3D56"/>
<path d="M452.276 269.874C469.009 269.874 482.574 256.309 482.574 239.575C482.574 222.842 469.009 209.277 452.276 209.277C435.542 209.277 421.977 222.842 421.977 239.575C421.977 256.309 435.542 269.874 452.276 269.874Z" fill="#FFB6B6"/>
<path d="M430.287 260.931C430.023 260.699 429.773 260.452 429.515 260.213C429.505 260.238 429.504 260.263 429.494 260.287L430.287 260.931Z" fill="#2F2E41"/>
<path d="M477.105 207.58C475.6 205.156 473.515 203.146 471.038 201.73C469.345 200.909 467.566 200.279 465.734 199.851L460.939 198.543C458.483 197.782 455.955 197.273 453.395 197.024C449.841 196.848 446.307 197.653 443.179 199.35C440.051 201.047 437.449 203.571 435.658 206.646C434.21 209.216 433.047 212.418 430.251 213.358C427.997 214.116 425.537 213.047 423.168 213.254C421.779 213.455 420.462 213.996 419.332 214.828C418.203 215.66 417.296 216.758 416.692 218.024C415.511 220.572 414.93 223.357 414.993 226.165C414.9 232.54 416.144 238.864 418.645 244.728C421.147 250.593 424.849 255.868 429.515 260.213C430.297 258.152 429.009 255.927 427.991 253.955C426.96 251.96 426.324 249.178 428.049 247.741C429.969 246.142 433.045 247.692 435.316 246.65C436.042 246.232 436.654 245.642 437.097 244.93C437.539 244.219 437.799 243.409 437.852 242.573C438.072 240.916 437.842 239.232 437.946 237.564C438.049 235.92 438.474 234.313 439.198 232.833C439.922 231.354 440.93 230.031 442.164 228.941C443.399 227.851 444.837 227.015 446.395 226.481C447.953 225.947 449.601 225.724 451.245 225.827C451.282 225.829 451.32 225.832 451.358 225.834C456.526 226.203 461.542 229.735 466.516 228.282C468.851 227.6 470.842 225.864 473.257 225.572C475.931 225.248 478.447 226.757 480.717 228.207C481.542 224.703 481.648 221.068 481.027 217.523C480.406 213.977 479.072 210.595 477.105 207.58V207.58Z" fill="#2F2E41"/>
<path d="M635.432 767.18L627.722 754.79L626.182 761.87C625.912 763.11 625.642 764.37 625.392 765.62C623.202 763.75 620.872 762.02 618.592 760.36C611.592 755.28 604.596 750.193 597.602 745.1L599.792 757.8C601.142 765.62 602.552 773.6 605.892 780.75C606.262 781.56 606.662 782.36 607.092 783.14H639.632C639.894 782.415 640.075 781.664 640.172 780.9C640.18 780.85 640.184 780.8 640.182 780.75C640.692 775.9 638.012 771.33 635.432 767.18Z" fill="#F0F0F0"/>
<path d="M673.293 784.358L357.936 784.665C357.621 784.663 357.319 784.537 357.097 784.314C356.875 784.091 356.751 783.789 356.751 783.474C356.751 783.159 356.875 782.858 357.097 782.634C357.319 782.411 357.621 782.285 357.936 782.284L673.293 781.976C673.608 781.978 673.909 782.104 674.131 782.327C674.353 782.55 674.478 782.852 674.478 783.167C674.478 783.482 674.353 783.784 674.131 784.007C673.909 784.23 673.608 784.356 673.293 784.358V784.358Z" fill="#CACACA"/>
<path d="M999.264 390.395C999.195 425.401 986.034 459.115 962.368 484.909C938.702 510.703 906.244 526.711 871.373 529.786C836.503 532.861 801.744 522.781 773.929 501.528C746.114 480.274 727.255 449.384 721.061 414.931C714.866 380.478 721.784 344.954 740.453 315.342C759.123 285.731 788.194 264.174 821.952 254.911C855.71 245.647 891.712 249.346 922.88 265.281C954.049 281.216 978.129 308.234 990.387 341.023C990.692 341.847 990.991 342.67 991.281 343.501V343.509C992.575 347.163 993.714 350.886 994.7 354.676C997.74 366.339 999.273 378.343 999.264 390.395V390.395Z" fill="#3F3D56"/>
<path d="M842.667 295.161C836.324 291.731 829.281 289.795 822.076 289.5C814.87 289.205 807.693 290.56 801.09 293.46C795.277 295.99 789.156 300.529 787.217 308.724C795.06 304.095 805.213 311.409 807.231 323.141L806.76 323.271C805.694 331.397 808.074 340.245 812.681 345.284C813.023 343.01 813.868 340.841 815.153 338.935C816.439 337.028 818.133 335.432 820.112 334.262C823.497 332.037 827.242 330.421 829.826 326.596C832.888 322.062 833.666 315.435 834.883 309.389C836.1 303.344 838.408 296.846 842.667 295.161Z" fill="#DB2777"/>
<path d="M798.764 364.314C796.592 367.576 793.69 369.623 791.087 372.171C788.081 374.905 786.109 378.591 785.503 382.609C785.174 385.447 785.684 388.333 785.613 391.203C785.542 394.073 784.586 397.304 782.633 398.018C779.551 399.131 777.199 393.407 774.031 393.007C771.513 392.693 769.247 396.653 769.976 400.088C770.706 403.523 774.133 405.044 776.101 402.801C777.881 405.789 776.626 411.208 773.952 412.125C773.67 414.007 773.388 415.881 773.113 417.763C766.353 413.035 759.523 408.228 753.775 401.303C747.382 393.668 743.417 384.296 742.389 374.39C741.644 366.431 742.75 357.326 739.095 351.202C736.17 346.301 731.151 345.219 726.635 345.525C725.811 345.579 724.98 345.674 724.157 345.775C726.82 337.775 730.203 330.032 734.265 322.642C735.184 322.248 736.038 321.716 736.797 321.066C741.001 317.498 742.867 310.275 746.278 305.28C746.498 304.959 746.725 304.645 746.96 304.339C750.45 299.783 755.124 297.438 759.641 295.258C769.639 290.404 779.927 285.487 790.483 286.162L787.479 286.452C783.974 296.27 780.466 306.088 776.955 315.906C776.422 317.411 775.884 318.92 775.34 320.431C773.348 326.014 771.294 331.958 771.599 338.208C771.78 341.909 773.066 345.862 775.512 347.132C777.794 348.308 780.288 346.865 782.492 345.438C783.425 344.842 784.35 344.246 785.283 343.642C788.632 341.486 792.341 339.275 795.878 340.717C799.116 342.035 801.508 346.434 801.963 351.178C802.38 355.79 801.255 360.41 798.764 364.314Z" fill="#DB2777"/>
<path d="M818.679 431.343C808.899 425.322 799.12 419.301 789.34 413.279L789.506 412.852C783.426 415.168 780.901 425.976 781.906 434.815C782.911 443.654 786.318 451.555 788.04 460.168C790.361 471.953 789.485 484.146 785.502 495.479C798.362 481.05 809.742 465.368 819.473 448.668C820.833 446.563 821.869 444.266 822.546 441.854C823.264 439.284 823.008 436.539 821.828 434.145C821.027 432.964 819.945 432.001 818.679 431.343Z" fill="#DB2777"/>
<path d="M780.082 321.797C778.934 324.262 778.757 327.07 779.587 329.661C780.552 331.748 782.302 333.369 784.457 334.171L789.86 336.85C791.658 337.741 793.596 338.641 795.428 337.908C797.639 337.023 799.171 333.558 798.775 330.341C798.353 326.918 796.195 324.563 794.199 322.558C791.407 319.752 788.614 316.945 785.821 314.139L784.247 316.067C782.545 317.728 781.136 319.665 780.082 321.797V321.797Z" fill="#DB2777"/>
<path d="M970.296 358.393C972.727 358.965 975.158 359.538 977.589 360.11C977.165 368.321 973.095 375.919 967.638 378.672C965.363 379.817 962.831 380.24 960.948 382.381C959.247 384.326 958.384 387.353 957.592 390.246C956.204 395.297 954.816 400.347 953.428 405.397C951.938 410.839 950.025 416.885 946.151 418.846C942.826 420.531 939.023 418.469 936.466 415.011C933.91 411.553 932.349 406.902 930.836 402.37C930.93 407.31 928.632 412.156 925.378 413.874C922.116 415.591 918.148 414.038 915.968 410.204C914.399 407.451 913.748 403.821 912.211 401.029C910.674 398.237 907.452 396.637 905.773 399.257C904.668 400.998 904.809 403.664 904.26 405.875C903.983 407.343 903.256 408.689 902.18 409.725C901.103 410.76 899.731 411.435 898.253 411.655C896.894 411.623 895.556 411.316 894.32 410.751C893.083 410.186 891.975 409.376 891.062 408.369C886.26 403.457 883.134 397.152 882.13 390.356C881.45 387.098 881.536 383.726 882.381 380.507C883.346 377.456 885.675 375.104 887.988 375.684C889.509 372.469 886.506 368.203 883.8 368.579C881.087 368.956 878.962 371.865 876.735 374.1C874.516 376.335 871.41 377.958 869.175 375.739C869.225 376.551 868.951 377.349 868.412 377.958C867.874 378.568 867.115 378.938 866.303 378.988C866.223 378.993 866.143 378.995 866.062 378.993C864.576 378.567 863.195 377.835 862.008 376.845C856.887 373.653 850.386 375.77 846.748 381.808C849.022 372.132 852.355 361.028 859.342 358.753C862.196 357.82 865.309 358.589 868.007 356.973C872.783 354.111 873.747 343.297 869.622 338.835C870.148 343.054 870.046 347.979 867.819 350.865C865.592 353.751 860.918 351.868 861.2 347.603C861.137 348.203 860.885 348.767 860.482 349.215C860.078 349.664 859.542 349.972 858.952 350.098C858.362 350.223 857.747 350.158 857.196 349.913C856.645 349.668 856.186 349.254 855.884 348.732C854.402 346.473 854.527 342.78 855.578 340.082C856.661 337.639 858.215 335.433 860.15 333.589C863.875 329.598 867.654 325.559 871.967 323.05C876.288 320.54 881.276 319.694 885.604 322.187C887.886 323.505 889.894 325.7 892.223 326.861C892.77 327.201 893.379 327.429 894.015 327.533C894.65 327.638 895.3 327.616 895.927 327.469C896.554 327.322 897.146 327.053 897.669 326.677C898.193 326.302 898.637 325.827 898.976 325.279C899.003 325.237 899.028 325.194 899.053 325.151C900.786 322.109 899.971 317.592 900.614 313.789C901.766 307.068 908.487 303.924 912.212 308.362C909.428 307.649 906.55 310.942 906.205 314.934C905.852 318.925 907.867 322.956 910.565 324.163C915.097 326.171 919.536 321.121 922.963 316.447C926.539 311.554 930.12 306.663 933.706 301.775C934.279 300.943 934.921 300.161 935.627 299.438C936.75 298.343 938.248 297.716 939.816 297.684C941.384 297.652 942.906 298.218 944.073 299.266C947.696 302.222 949.397 308.284 952.37 312.456C956.683 318.517 963.136 319.992 969.143 321.168C973.621 322.038 978.101 322.914 982.584 323.795C985.572 329.354 988.179 335.11 990.387 341.023C982.166 344.772 975.193 350.8 970.296 358.393Z" fill="#DB2777"/>
<path d="M994.7 354.676C993.781 357.384 993.278 360.216 993.21 363.074C989.367 358.385 988.755 349.594 991.28 343.509C992.574 347.163 993.714 350.886 994.7 354.676Z" fill="#DB2777"/>
<path d="M984.772 452.746C981.412 459.568 977.505 466.106 973.088 472.296C970.265 471.088 967.23 473.244 964.587 475.267C961.827 477.385 958.51 479.447 955.679 477.518C952.785 475.542 951.852 470.014 952.769 465.63C953.824 461.586 955.668 457.791 958.196 454.463C960.548 450.95 963.066 447.303 966.336 445.939C969.614 444.575 973.825 446.504 974.781 451.162L977.103 451.083C975.801 449.295 976.483 445.594 978.232 444.943C980.247 444.182 981.996 446.951 983.188 449.397C983.721 450.503 984.262 451.617 984.772 452.746Z" fill="#DB2777"/>
<path d="M895.873 419.623C890.883 419.936 886.931 413.794 884.305 407.752C881.679 401.71 879.283 394.8 874.781 391.724C872.209 389.967 869.276 389.726 866.486 388.874C864.904 388.474 863.439 387.703 862.214 386.625C860.989 385.546 860.039 384.191 859.442 382.672L856.277 381.394C851.85 383.606 847.796 386.497 844.261 389.961C840.221 394.252 837.705 399.753 837.101 405.615C836.496 411.95 838.729 419.013 842.9 421.393C846.196 423.273 850.034 422.088 853.372 423.81C857.544 425.96 860.02 432.208 860.958 438.377C861.895 444.546 861.658 450.956 862.329 457.195C862.999 463.434 864.848 469.925 868.673 473.123C873.46 477.123 880.485 473.799 882.633 466.516C883.686 462.944 883.65 458.913 884.438 455.204C885.826 448.674 889.57 443.829 892.54 438.472C895.51 433.115 897.848 425.839 895.873 419.623Z" fill="#DB2777"/>
<path d="M846.571 355.452C847.037 355.88 847.471 356.341 847.871 356.831C848.285 357.544 848.496 358.357 848.482 359.182C848.468 360.006 848.229 360.812 847.791 361.51C848.392 361.476 848.979 361.318 849.516 361.045C850.053 360.772 850.527 360.391 850.909 359.926C851.819 358.889 852.62 357.76 853.299 356.559C853.618 356.147 853.846 355.672 853.968 355.166C854.089 354.66 854.101 354.133 854.004 353.622C853.768 352.949 853.211 352.662 852.82 352.156C852.278 351.167 851.909 350.093 851.727 348.98C851.51 347.937 851.007 346.975 850.273 346.202C849.54 345.43 848.606 344.877 847.576 344.606L847.826 344.653C847.4 344.906 847.064 345.285 846.865 345.738C846.666 346.191 846.613 346.695 846.715 347.18C846.866 348.158 847.495 348.971 847.432 349.969C847.342 351.404 845.908 352.077 845.82 353.513C845.806 354.233 846.076 354.929 846.571 355.452V355.452Z" fill="#DB2777"/>
<path d="M838.023 331.064L838.046 331.059C838.199 330.919 838.341 330.768 838.471 330.606L838.023 331.064Z" fill="#DB2777"/>
<path d="M839.52 337.8C840.119 337.274 840.562 336.594 840.801 335.833C841.04 335.072 841.065 334.261 840.874 333.487C840.512 331.855 839.229 330.758 838.046 331.059C837.702 331.407 837.276 331.662 836.807 331.8C836.338 331.938 835.842 331.955 835.365 331.848C834.634 331.66 833.83 331.175 833.196 331.726C832.833 332.138 832.579 332.634 832.457 333.169C832.222 333.89 831.987 334.611 831.753 335.331C831.641 335.589 831.612 335.876 831.669 336.151C831.714 336.261 831.787 336.358 831.88 336.432C831.973 336.506 832.084 336.555 832.202 336.574C833.611 336.989 835.02 337.405 836.429 337.82C836.914 338.044 837.442 338.158 837.976 338.154C838.511 338.151 839.037 338.03 839.52 337.8V337.8Z" fill="#DB2777"/>
<path d="M945.887 430.803C945.236 429.737 944.585 428.671 943.933 427.604C943.294 426.369 942.419 425.271 941.359 424.371C941.129 424.179 940.864 424.034 940.578 423.944C940.292 423.854 939.991 423.821 939.693 423.848C939.395 423.874 939.104 423.959 938.839 424.097C938.573 424.236 938.337 424.425 938.145 424.655L938.111 424.697L938.19 425.306C939.934 427.175 941.123 429.494 941.622 432.002C941.77 433.091 941.719 434.219 941.849 435.314C941.863 435.821 941.976 436.321 942.183 436.785C942.39 437.248 942.687 437.666 943.056 438.015C944.081 438.7 945.285 437.69 946.015 436.457C946.668 435.445 946.961 434.242 946.846 433.043C946.684 432.239 946.357 431.476 945.887 430.803V430.803Z" fill="#DB2777"/>
<path d="M956.104 432.191C956.229 431.193 956.148 430.18 955.866 429.214C955.819 427.907 956.166 426.616 956.861 425.509C957.551 424.464 958.073 423.317 958.41 422.111C958.552 421.562 958.526 420.982 958.336 420.448C958.12 419.963 957.598 419.742 957.299 420.126L957.94 420.539C957.074 420.384 956.185 420.427 955.338 420.665C954.855 420.85 954.424 421.148 954.081 421.535C953.738 421.922 953.493 422.386 953.367 422.887C953.261 423.669 953.088 424.441 952.85 425.193C952.468 425.979 951.727 426.24 951.262 426.93C950.945 427.542 950.785 428.222 950.796 428.911C950.808 429.6 950.99 430.275 951.328 430.876C951.912 431.858 952.84 432.588 953.933 432.924C954.716 433.205 955.746 433.22 956.104 432.191Z" fill="#DB2777"/>
<path d="M974.299 437.681C974.582 438.417 974.961 439.113 975.427 439.75C976.298 440.627 977.482 440.088 978.538 439.875C979.497 439.723 980.479 439.834 981.38 440.196C982.282 440.557 983.068 441.156 983.656 441.928C983.247 439.884 982.352 437.968 981.049 436.342C979.745 434.715 978.07 433.425 976.164 432.58C973.688 431.723 971.078 431.315 968.459 431.375L968.011 431.49C969.152 434.809 972.732 434.735 974.299 437.681Z" fill="#DB2777"/>
<path d="M897.237 444.47L897.244 444.484L897.374 444.233L897.237 444.47Z" fill="#DB2777"/>
<path d="M894.477 449.812C893.875 450.905 893.357 452.042 892.929 453.214C892.361 455.112 891.985 457.062 891.806 459.035C891.666 460.156 891.623 461.589 892.326 462.136C892.527 462.27 892.771 462.326 893.011 462.293C893.251 462.26 893.471 462.141 893.63 461.959C894.02 461.545 894.34 461.071 894.575 460.553C895.957 458.174 897.029 455.629 897.767 452.979C898.537 450.167 898.353 447.18 897.244 444.484C896.322 446.26 895.399 448.036 894.477 449.812Z" fill="#DB2777"/>
<path d="M867.849 307.471C868.287 307.899 868.842 308.19 869.443 308.308C870.045 308.425 870.668 308.364 871.236 308.132C872.411 307.618 873.488 306.906 874.422 306.027C875.195 305.455 875.851 304.739 876.354 303.919C876.631 303.43 876.808 302.89 876.876 302.331C876.944 301.772 876.901 301.206 876.749 300.664C876.533 300.145 876.188 299.689 875.747 299.34C875.306 298.991 874.783 298.761 874.228 298.67C872.665 298.206 871.101 297.742 869.537 297.279L870.668 296.259C869.504 295.634 868.216 296.794 867.489 298.229C867.022 299.166 866.697 300.167 866.524 301.2C866.276 302.279 866.267 303.398 866.496 304.481C866.724 305.564 867.186 306.584 867.849 307.471V307.471Z" fill="#DB2777"/>
<path d="M895.46 298.201C895.9 298.687 896.51 298.987 897.164 299.041C897.817 299.094 898.467 298.896 898.981 298.488C899.423 298.156 899.79 297.734 900.058 297.251C900.327 296.768 900.49 296.233 900.538 295.683C900.649 294.453 900.041 293.085 899.172 292.979L899.371 291.827C897.697 291.525 895.638 291.464 894.741 293.497C894.439 294.275 894.346 295.119 894.472 295.945C894.598 296.771 894.939 297.549 895.46 298.201V298.201Z" fill="#DB2777"/>
<g opacity="0.35">
<path opacity="0.35" d="M1160.21 397.35C1169.45 393.323 1150.72 390.979 1129.47 390.208C1108.22 389.437 1082.52 389.48 1068.94 387.288C1055.8 385.168 1056.77 381.398 1055.67 377.983C1054.56 374.567 1049.51 371.065 1029.02 370.306C1003.48 369.36 961.37 373.001 942.093 370.815C924.103 368.775 934.797 362.375 908.564 362.13C893.585 361.99 874.288 364.1 857.62 364.609C845.806 365.121 833.969 364.504 822.272 362.766C814.148 361.435 808.49 359.748 799.347 358.572C775.342 355.485 728.378 356.523 686.461 360.479C644.543 364.435 608.612 370.918 588.349 377.339C568.085 383.76 562.486 390.082 567.207 395.443C570.221 398.866 577.934 402.067 596.644 403.443C631.639 406.016 693.946 401.587 730.108 403.928C750.263 405.233 759.204 408.467 776.888 410.237C795.886 412.139 823.698 412.24 851.023 412.195C907.917 412.101 966.266 411.516 1025.76 410.444C1050.62 409.996 1076.65 409.414 1103.1 407.28C1129.54 405.147 1156.51 401.03 1162.09 397.17" fill="white"/>
</g>
<path d="M999.651 575.203C986.739 575.203 972.587 574.715 957.194 573.739C877.581 568.684 774.457 551.107 666.818 524.247C559.181 497.388 459.888 464.453 387.233 431.513C351.84 415.466 324.677 400.276 306.498 386.365C287.251 371.638 278.832 358.801 281.474 348.213C286.622 327.584 332.205 323.07 369.538 322.917L369.55 325.917C318.282 326.128 288.037 334.304 284.385 348.939C279.733 367.579 317.672 396.68 388.472 428.78C460.967 461.649 560.077 494.52 667.545 521.337C775.012 548.153 877.946 565.7 957.385 570.745C1034.96 575.673 1082.13 567.808 1086.78 549.167C1090.64 533.691 1065.18 510.892 1015.09 484.969L1016.47 482.305C1052.87 501.141 1095.11 528.156 1089.69 549.894C1087.05 560.483 1073.59 567.859 1049.68 571.817C1036.05 574.072 1019.31 575.203 999.651 575.203Z" fill="#DB2777"/>
<path d="M506.996 579.109C471.397 579.11 438.302 577.889 408.674 575.424C369.948 572.201 339.26 567.021 317.464 560.027C294.387 552.622 282.144 543.36 281.076 532.499C278.993 511.341 320.41 491.775 355.521 479.086L356.54 481.908C308.324 499.332 282.583 517.194 284.061 532.206C285.943 551.325 331.453 565.987 408.923 572.434C488.248 579.034 592.64 576.695 702.87 565.844C813.1 554.995 915.946 536.938 992.461 514.998C1067.19 493.572 1108.97 470.318 1107.08 451.199C1105.52 435.325 1073.88 422.406 1017.99 414.82L1018.4 411.848C1059.01 417.359 1107.88 428.609 1110.07 450.905C1111.14 461.767 1100.94 473.237 1079.75 484.999C1059.73 496.109 1030.64 507.172 993.288 517.882C916.603 539.87 813.569 557.963 703.164 568.83C633.905 575.647 566.919 579.109 506.996 579.109Z" fill="#DB2777"/>
<path d="M718.848 642.475C728.503 642.475 736.331 634.648 736.331 624.992C736.331 615.336 728.503 607.509 718.848 607.509C709.192 607.509 701.365 615.336 701.365 624.992C701.365 634.648 709.192 642.475 718.848 642.475Z" fill="#DB2777"/>
<path d="M695.573 271.275C701.484 271.275 706.275 266.483 706.275 260.572C706.275 254.661 701.484 249.87 695.573 249.87C689.662 249.87 684.871 254.661 684.871 260.572C684.871 266.483 689.662 271.275 695.573 271.275Z" fill="#FF6584"/>
<path d="M630.82 352.065C640.475 352.065 648.303 344.238 648.303 334.582C648.303 324.926 640.475 317.099 630.82 317.099C621.164 317.099 613.337 324.926 613.337 334.582C613.337 344.238 621.164 352.065 630.82 352.065Z" fill="#E6E6E6"/>
</svg>
